<?xml version="1.0" encoding="UTF-8"?>
<svg version="1.1" xmlns="http://www.w3.org/2000/svg" width="1536" height="1024">
<path d="M0 0 C506.88 0 1013.76 0 1536 0 C1536 337.92 1536 675.84 1536 1024 C1029.12 1024 522.24 1024 0 1024 C0 686.08 0 348.16 0 0 Z " fill="#080608" transform="translate(0,0)"/>
<path d="M0 0 C8.53311654 3.99422476 16.29080858 8.59492557 24 14 C24.84763916 14.5885376 24.84763916 14.5885376 25.71240234 15.18896484 C45.13010622 28.68644086 65.57609003 44.44824236 78.390625 64.69921875 C81.80427641 70.82390762 81.80427641 70.82390762 87.16015625 74.84765625 C89.55250845 74.96254902 89.55250845 74.96254902 93 74 C109.75228357 70.29275588 128.18706336 71.22264173 145 74 C144.11266948 78.14087575 143.19604159 82.25573592 142.1171875 86.3515625 C139.02390652 98.11577284 136.96209905 110.00028172 135 122 C135.27585937 121.16210938 135.55171875 120.32421875 135.8359375 119.4609375 C145.2884001 91.35730708 159.52704637 66.57508653 180 45 C181.35544922 43.56527344 181.35544922 43.56527344 182.73828125 42.1015625 C189.93224952 34.62597551 197.68117642 28.18272278 206 22 C206.55913086 21.58008789 207.11826172 21.16017578 207.69433594 20.72753906 C214.79957463 15.41416442 222.14380792 10.54418646 229.6875 5.875 C230.46641602 5.38902344 231.24533203 4.90304688 232.04785156 4.40234375 C232.77842773 3.95761719 233.50900391 3.51289063 234.26171875 3.0546875 C234.91100342 2.65749512 235.56028809 2.26030273 236.22924805 1.85107422 C238 1 238 1 241 1 C241.55390845 6.90835685 239.01489462 12.97517564 236 18 C235.34 18.33 234.68 18.66 234 19 C234.66 19.66 235.32 20.32 236 21 C235.38253906 21.52207031 234.76507812 22.04414063 234.12890625 22.58203125 C226.78022742 28.96878256 220.75421962 35.98492926 214.9296875 43.765625 C213 46 213 46 210 47 C208.472053 49.11180772 208.472053 49.11180772 207 51.75 C204.26431346 56.21197931 201.25937626 60.20020579 197.8125 64.125 C191.81024361 71.00517978 186.67204235 78.39761878 181.47314453 85.89208984 C162.54721564 112.97304278 162.54721564 112.97304278 152.53515625 122.51171875 C146.44795682 128.41304949 141.32974777 135.42987456 136 142 C135.31655518 142.71986084 134.63311035 143.43972168 133.92895508 144.18139648 C131.54330966 147.66731933 131.22952302 150.64934195 130.98828125 154.74609375 C130.92999649 155.49971695 130.87171173 156.25334015 130.81166077 157.02980042 C130.62645926 159.49808758 130.46847922 161.96720654 130.3125 164.4375 C130.19103086 166.17908991 130.06878849 167.92062605 129.94580078 169.66210938 C128.9079282 184.76478205 128.29928089 199.86554624 128 215 C127.97915344 216.03137085 127.95830688 217.0627417 127.93682861 218.12536621 C127.5947765 235.08306019 127.28660765 252.04128415 127 269 C126.09290283 269.02187378 126.09290283 269.02187378 125.16748047 269.04418945 C122.40270735 269.11909188 119.63908643 269.21561073 116.875 269.3125 C115.92367187 269.33505859 114.97234375 269.35761719 113.9921875 269.38085938 C108.5541003 269.58856409 104.7792904 270.15227585 100 273 C99.34 273 98.68 273 98 273 C97.41223366 275.7446344 97.41223366 275.7446344 98 279 C101.66732396 283.49766146 107.13793558 286.52984373 111.984375 289.60546875 C113.93990771 290.95842452 115.51223295 292.14378907 117 294 C117.1875 297.6875 117.1875 297.6875 117 301 C108.89231016 303.09230705 98.10034588 305.45790909 90.30078125 301.69921875 C81.65606728 295.31475258 76.51344118 285.50366894 74.27734375 275.08984375 C73.48800947 269.14204322 73.54026347 263.32851943 75 257.5 C76.62636928 250.98282239 77.05377979 244.59054198 74.5 238.3125 C74.005 237.549375 73.51 236.78625 73 236 C72.67 236 72.34 236 72 236 C72.02320313 236.82242188 72.04640625 237.64484375 72.0703125 238.4921875 C72.17127003 244.73713201 71.9222562 250.41768248 70.51171875 256.5 C69.60062194 260.95115999 69.32696123 265.4741682 69 270 C68.34 270 67.68 270 67 270 C65.83891728 268.47931686 64.74826529 266.90478366 63.6875 265.3125 C47.49813403 242.58904759 22.54247312 227.27713903 -2 215 C-2.63647461 214.67515625 -3.27294922 214.3503125 -3.92871094 214.015625 C-13.65977679 209.07157489 -23.47416606 205.79572334 -34 203 C-34 202.67 -34 202.34 -34 202 C-20.64767658 202.73336625 -7.95461544 205.31235731 4.875 208.9375 C5.7302124 209.17815186 6.5854248 209.41880371 7.46655273 209.66674805 C13.47110464 211.41558467 19.23323528 213.5839854 25 216 C17.2785941 211.02868387 9.48822733 206.58682841 1.20703125 202.61523438 C-1.55941259 201.27866875 -3.81005011 200.18994989 -6 198 C10.44391879 198.69677622 25.70179442 204.40010129 41 210 C20.76947578 199.41181654 1.32288548 193.46171755 -21.5625 192.4375 C-22.47580078 192.39431641 -23.38910156 192.35113281 -24.33007812 192.30664062 C-26.55327991 192.20188243 -28.77656707 192.09970983 -31 192 C-30.46007026 186.29324264 -28.88276811 181.75456362 -26.5 176.5625 C-26.14542725 175.78116699 -25.79085449 174.99983398 -25.42553711 174.19482422 C-18.24050509 158.64374508 -9.79581735 144.18908906 2.6640625 132.23046875 C4.70819257 128.81760831 3.95012962 126.81220038 3 123 C1.84327514 119.81210028 0.50518527 116.72175979 -0.875 113.625 C-12.63478218 86.91780237 -17.62155303 58.68308251 -11 30 C-10.80664062 29.00097656 -10.61328125 28.00195312 -10.4140625 26.97265625 C-8.39840889 17.43102324 -4.10989837 8.78600602 0 0 Z " fill="#B4210D" transform="translate(647,208)"/>
<path d="M0 0 C3 1 3 1 4.39453125 3.3515625 C15.92033408 29.95933872 20.89519839 62.99945672 11 91 C10.41522164 92.91942557 9.83058507 94.83889719 9.24975586 96.75952148 C6.97235333 104.24317834 4.39476856 111.31423619 0.828125 118.29296875 C-0.92534901 121.8779824 -1.96798406 124.54377285 -2.25 128.5625 C-0.71380099 132.78704728 1.45390016 134.64963289 4.6953125 137.671875 C17.67774614 150.78633339 30.52681186 173.65950371 33 192 C31.77667969 192.03738281 30.55335938 192.07476562 29.29296875 192.11328125 C-2.82714607 193.27800944 -32.83800917 201.05082346 -58 222 C-58.79535156 222.63292969 -59.59070313 223.26585937 -60.41015625 223.91796875 C-66.9293718 229.34132988 -74.27138011 236.81414034 -77 245 C-77.39718066 249.59990625 -77.13442922 253.9016479 -76 258.375 C-73.89352939 267.07366279 -74.578168 274.79054039 -78 283 C-78.43505859 284.12728516 -78.43505859 284.12728516 -78.87890625 285.27734375 C-81.49021423 291.669039 -85.11268864 297.11268864 -90 302 C-98.35391334 304.94072734 -108.6444299 303.11246919 -117 301 C-117.38912391 297.03093609 -117.57342767 294.79093472 -115.1875 291.5 C-111.61613989 288.39312314 -107.45452872 286.00946205 -103.42578125 283.55078125 C-100.94212939 282.08539498 -100.94212939 282.08539498 -99 280 C-98.33256123 277.58655333 -98.33256123 277.58655333 -99 275 C-102.18865273 272.20992886 -105.15597657 270.83945591 -109.21875 269.88671875 C-111.09046875 269.44779297 -111.09046875 269.44779297 -113 269 C-113.2228488 207.79389468 -113.2228488 207.79389468 -112.1875 188.8125 C-112.04808202 185.97766774 -111.93677133 183.14898173 -111.8515625 180.3125 C-111.72203543 176.04780642 -111.5315429 171.78902431 -111.30703735 167.52832031 C-111.22898415 165.87742625 -111.16937509 164.22552796 -111.13070679 162.57324219 C-110.81237454 149.96891369 -107.45926568 143.39821117 -98.49453735 134.60009766 C-96.87913978 132.87060333 -95.57360843 131.0580057 -94.23901367 129.10546875 C-93.50013916 128.08066406 -92.76126465 127.05585938 -92 126 C-91.34 126 -90.68 126 -90 126 C-89.7628125 125.44183594 -89.525625 124.88367188 -89.28125 124.30859375 C-87.70247877 121.46391754 -85.74176343 119.42131753 -83.5 117.0625 C-75.94771964 108.88903641 -69.35988573 100.06762371 -63.03125 90.91796875 C-55.82095481 80.5601024 -48.51166705 70.40565627 -40.28515625 60.828125 C-37.10333425 56.89028034 -34.44763678 52.70872175 -31.7890625 48.3984375 C-29.90188706 45.86846868 -28.77011373 45.31244223 -26 44 C-24.03711251 41.88151028 -24.03711251 41.88151028 -22.1875 39.375 C-16.92399175 32.60763225 -11.77995573 26.29167277 -5 21 C-5.99 20.01 -5.99 20.01 -7 19 C-6.01 18.34 -5.02 17.68 -4 17 C-3.02260454 14.62267515 -3.02260454 14.62267515 -2.375 11.9375 C-1.07827789 7.07827789 -1.07827789 7.07827789 0 6 C0.04080783 4.00041636 0.04254356 1.99954746 0 0 Z " fill="#71150A" transform="translate(887,208)"/>
<path d="M0 0 C8.53311654 3.99422476 16.29080858 8.59492557 24 14 C24.84763916 14.5885376 24.84763916 14.5885376 25.71240234 15.18896484 C70.49014537 46.31450453 103.05475755 89.56985738 113 144 C109.62510589 142.39937119 107.33487203 140.5896388 104.625 138 C94.42140493 128.69145713 83.05409842 121.49415917 70.89355469 115.02294922 C69.17267547 114.09328394 67.47900976 113.11368087 65.7890625 112.12890625 C55.09216175 106.19938966 43.43007339 103.63219738 31.61865234 100.75854492 C29.21465384 100.06217877 27.18719404 99.20227747 25 98 C35.66865123 97.49107141 45.55177791 99.02996486 56 101 C47.12128124 70.05901038 30.04644906 42.66283604 6 21 C5.34 20.67 4.68 20.34 4 20 C1.82072644 36.72515177 0.29509453 53.12945907 1 70 C1.05583252 71.38251953 1.05583252 71.38251953 1.11279297 72.79296875 C1.73404939 85.84618055 3.8719718 98.26062521 6.96728516 110.95410156 C8.2964014 116.44296579 9.3736921 121.34587609 9 127 C7.68 127 6.36 127 5 127 C3.55823435 123.83525884 2.12238346 120.66786674 0.6875 117.5 C0.08131836 116.1696875 0.08131836 116.1696875 -0.53710938 114.8125 C-12.79835391 87.69820315 -17.74148507 59.2026012 -11 30 C-10.80664062 29.00097656 -10.61328125 28.00195312 -10.4140625 26.97265625 C-8.39840889 17.43102324 -4.10989837 8.78600602 0 0 Z " fill="#CE9F5B" transform="translate(647,208)"/>
<path d="M0 0 C8.353125 -0.0825 16.70625 -0.165 25.3125 -0.25 C27.92712158 -0.28641602 30.54174316 -0.32283203 33.2355957 -0.36035156 C35.34064924 -0.37204938 37.44571192 -0.3822386 39.55078125 -0.390625 C40.61727905 -0.41108887 41.68377686 -0.43155273 42.78259277 -0.45263672 C52.43931759 -0.45706387 61.31882874 1.5528873 68.5 8.375 C69.2940625 9.10460937 70.088125 9.83421875 70.90625 10.5859375 C76.09105175 16.56393654 76.49641447 21.76967759 76.4375 29.375 C76.45748047 30.2825 76.47746094 31.19 76.49804688 32.125 C76.49152273 41.18051212 73.33625157 47.51974272 67 54 C54.66686996 64.33633756 37.19112834 62.3669781 22.1875 62.1875 C14.865625 62.125625 7.54375 62.06375 0 62 C0 41.54 0 21.08 0 0 Z " fill="#B3210D" transform="translate(812,579)"/>
<path d="M0 0 C0.66 0 1.32 0 2 0 C0.47684257 4.26484081 -1.73167954 7.93464956 -4.125 11.75 C-11.54427333 23.88349319 -17.17828946 36.28346463 -21 50 C-21.65618647 52.00346294 -22.32004461 54.00447874 -23 56 C-22.360625 55.690625 -21.72125 55.38125 -21.0625 55.0625 C-12.75663334 52.18087279 -3.67059851 52.88899661 5 53 C2.76226821 55.44440129 0.51300524 56.95538745 -2.375 58.5625 C-22.32395956 70.32801775 -35.68517264 87.03683192 -47.74609375 106.44140625 C-49.26783512 108.88439625 -50.86547114 111.24570456 -52.53515625 113.58984375 C-73.37180683 143.55160501 -74.17335792 188.78778783 -75 224 C-77.64 223.67 -80.28 223.34 -83 223 C-83.2228488 161.79389468 -83.2228488 161.79389468 -82.1875 142.8125 C-82.04808202 139.97766774 -81.93677133 137.14898173 -81.8515625 134.3125 C-81.72203543 130.04780642 -81.5315429 125.78902431 -81.30703735 121.52832031 C-81.22898415 119.87742625 -81.16937509 118.22552796 -81.13070679 116.57324219 C-80.81237454 103.96891369 -77.45926568 97.39821117 -68.49453735 88.60009766 C-66.87913978 86.87060333 -65.57360843 85.0580057 -64.23901367 83.10546875 C-63.50013916 82.08066406 -62.76126465 81.05585938 -62 80 C-61.34 80 -60.68 80 -60 80 C-59.7628125 79.44183594 -59.525625 78.88367188 -59.28125 78.30859375 C-57.70247877 75.46391754 -55.74176343 73.42131753 -53.5 71.0625 C-45.94771964 62.88903641 -39.35988573 54.06762371 -33.03125 44.91796875 C-25.82301756 34.56306561 -18.51488462 24.41252466 -10.29296875 14.8359375 C-7.05290493 10.8286354 -4.32764045 6.57286794 -1.59375 2.203125 C-1.0678125 1.47609375 -0.541875 0.7490625 0 0 Z " fill="#8C1B0C" transform="translate(857,254)"/>
<path d="M0 0 C2.5223041 11.00428488 4.68375817 21.67029259 5 33 C5.05994141 34.43859375 5.05994141 34.43859375 5.12109375 35.90625 C5.47301304 51.63911258 3.78878444 67.48241189 0.625 82.875 C0.42817627 83.84219971 0.23135254 84.80939941 0.02856445 85.8059082 C-1.3618782 92.16703141 -3.40028381 98.03346483 -6 104 C-12.87014167 100.40878958 -18.87384845 95.70778149 -25 91 C-23.74833586 87.48197311 -22.37397315 84.95810067 -19.875 82.1875 C-19.33617187 81.58292969 -18.79734375 80.97835937 -18.2421875 80.35546875 C-17.83226562 79.90816406 -17.42234375 79.46085937 -17 79 C-28.6121584 78.67793706 -39.61453253 79.61098887 -51 82 C-51.45384354 77.15900223 -49.78485154 73.38776005 -48 69 C-47.39671875 67.38931641 -47.39671875 67.38931641 -46.78125 65.74609375 C-39.46987007 46.59434021 -29.30970237 29.62024745 -16 14 C-15.06994141 12.88431641 -15.06994141 12.88431641 -14.12109375 11.74609375 C-4.15808824 0 -4.15808824 0 0 0 Z " fill="#090708" transform="translate(885,228)"/>
<path d="M0 0 C4.39987031 2.00961905 7.25429608 4.9103155 10.625 8.3125 C11.24600586 8.93842041 11.86701172 9.56434082 12.50683594 10.20922852 C18.23200693 16.07848938 23.27896138 22.30060301 28 29 C28.62600098 29.88341064 28.62600098 29.88341064 29.26464844 30.78466797 C39.1173527 44.81041389 52 63.22302919 52 81 C47.82255877 81.18566405 44.21441312 80.88655979 40.125 80 C32.47378581 78.48045816 24.76183023 78.83620991 17 79 C17.58910156 79.68707031 18.17820312 80.37414062 18.78515625 81.08203125 C19.53667969 81.98308594 20.28820312 82.88414062 21.0625 83.8125 C21.81660156 84.70582031 22.57070313 85.59914063 23.34765625 86.51953125 C23.89292969 87.33808594 24.43820312 88.15664063 25 89 C23.6149693 93.15509209 20.65995008 94.62686829 17.1875 97 C15.93077459 97.87469118 14.67425875 98.74968357 13.41796875 99.625 C12.82677246 100.03363281 12.23557617 100.44226563 11.62646484 100.86328125 C9.71666572 102.19801927 7.84984787 103.58349181 6 105 C-7.45569638 73.20153298 -6.62549865 33.26846133 0 0 Z " fill="#0A0808" transform="translate(651,228)"/>
<path d="M0 0 C10.5496875 -0.12375 10.5496875 -0.12375 21.3125 -0.25 C24.607948 -0.30462402 24.607948 -0.30462402 27.9699707 -0.36035156 C41.07746889 -0.48866369 51.42853251 -0.03033036 61.44140625 9.31640625 C66.57862193 14.8656292 66.47811521 21.72051718 66.40625 28.9609375 C65.54816207 35.38009532 61.63618531 39.99277138 56.625 43.875 C49.21359847 48.43651387 42.92125299 49.43390203 34.375 49.29296875 C33.4984375 49.28994751 32.621875 49.28692627 31.71875 49.28381348 C28.47904498 49.26824876 25.23950927 49.22636586 22 49.1875 C14.74 49.125625 7.48 49.06375 0 49 C0 32.83 0 16.66 0 0 Z " fill="#A5A5A5" transform="translate(434,588)"/>
<path d="M0 0 C7.0125 -0.103125 14.025 -0.20625 21.25 -0.3125 C23.43786133 -0.35802002 25.62572266 -0.40354004 27.87988281 -0.45043945 C40.98565306 -0.6094724 51.39966861 0.24092456 61.59765625 9.375 C66.20669757 14.71583897 66.47857335 18.90608776 66.26953125 25.78125 C65.68585937 32.75147648 63.91312778 36.45810943 58.8125 41.3125 C50.38959343 48.28601031 41.24599629 49.1626483 30.6640625 49.09765625 C29.88377686 49.09664917 29.10349121 49.09564209 28.29956055 49.09460449 C25.40802524 49.08940541 22.51651101 49.07544433 19.625 49.0625 C13.14875 49.041875 6.6725 49.02125 0 49 C0 32.83 0 16.66 0 0 Z " fill="#A6A5A6" transform="translate(509,588)"/>
<path d="M0 0 C6.3525 -0.061875 12.705 -0.12375 19.25 -0.1875 C21.2290332 -0.21481201 23.20806641 -0.24212402 25.24707031 -0.27026367 C49.29285534 -0.46326685 49.29285534 -0.46326685 58 7 C62.57437685 11.72906593 66.27944523 15.84516322 66.3125 22.6875 C66.15077175 29.99761682 64.34808463 36.79265444 59 42 C52.86040254 46.71124833 48.13798015 49.13559994 40.30151367 49.11352539 C39.38849487 49.11340454 38.47547607 49.11328369 37.53479004 49.11315918 C36.1157135 49.10548523 36.1157135 49.10548523 34.66796875 49.09765625 C33.78838501 49.09664917 32.90880127 49.09564209 32.00256348 49.09460449 C28.7308623 49.08939006 25.45917978 49.07542883 22.1875 49.0625 C14.865625 49.041875 7.54375 49.02125 0 49 C0 32.83 0 16.66 0 0 Z " fill="#AC1F0C" transform="translate(1036,588)"/>
<path d="M0 0 C9.9 -0.061875 9.9 -0.061875 20 -0.125 C22.06765625 -0.14320801 24.1353125 -0.16141602 26.265625 -0.18017578 C27.9270807 -0.18602375 29.5885393 -0.19111859 31.25 -0.1953125 C32.51650391 -0.2106604 32.51650391 -0.2106604 33.80859375 -0.22631836 C43.46285831 -0.22912483 52.68132913 1.93724844 59.8671875 8.77734375 C65.13035555 14.73303391 65.35443479 19.61563205 65.2734375 27.48046875 C64.77360126 33.91407527 62.46156592 37.88204039 57.8125 42.25 C50.35178458 47.93762516 43.556125 49.59577018 34.27734375 49.390625 C32.96401062 49.38458252 32.96401062 49.38458252 31.62414551 49.37841797 C28.3950464 49.35769977 25.16624917 49.3018564 21.9375 49.25 C14.698125 49.1675 7.45875 49.085 0 49 C0 32.83 0 16.66 0 0 Z " fill="#B0200D" transform="translate(962,588)"/>
<path d="M0 0 C20.46 0 40.92 0 62 0 C62 3.63 62 7.26 62 11 C46.82 11 31.64 11 16 11 C16 15.29 16 19.58 16 24 C29.86 24 43.72 24 58 24 C58 27.96 58 31.92 58 36 C44.47 36 30.94 36 17 36 C17 40.29 17 44.58 17 49 C32.18 49 47.36 49 63 49 C63 52.63 63 56.26 63 60 C42.21 60 21.42 60 0 60 C0 40.2 0 20.4 0 0 Z " fill="#A5A4A4" transform="translate(364,580)"/>
<path d="M0 0 C28.19638648 1.19476214 55.71149291 13.60772562 75.5390625 33.2734375 C79.53244172 37.99288567 78.27874852 45.206013 78 51 C77.60962939 53.53740896 77.09147409 56.00006209 76.51171875 58.5 C75.60062194 62.95115999 75.32696123 67.4741682 75 72 C74.34 72 73.68 72 73 72 C71.83891728 70.47931686 70.74826529 68.90478366 69.6875 67.3125 C53.49813403 44.58904759 28.54247312 29.27713903 4 17 C3.36352539 16.67515625 2.72705078 16.3503125 2.07128906 16.015625 C-7.65977679 11.07157489 -17.47416606 7.79572334 -28 5 C-28 4.67 -28 4.34 -28 4 C-14.64767658 4.73336625 -1.95461544 7.31235731 10.875 10.9375 C11.7302124 11.17815186 12.5854248 11.41880371 13.46655273 11.66674805 C19.47110464 13.41558467 25.23323528 15.5839854 31 18 C23.2785941 13.02868387 15.48822733 8.58682841 7.20703125 4.61523438 C4.44058741 3.27866875 2.18994989 2.18994989 0 0 Z " fill="#E1BF8F" transform="translate(641,406)"/>
<path d="M0 0 C1.63074674 0.05281771 3.26058591 0.14777106 4.88671875 0.28125 C5.72267578 0.31734375 6.55863281 0.3534375 7.41992188 0.390625 C9.47333781 0.48449544 11.52437965 0.627991 13.57421875 0.78125 C14.44820312 2.36486328 14.44820312 2.36486328 15.33984375 3.98046875 C20.59832489 13.48639372 25.92489487 22.94820937 31.37402344 32.34643555 C34.66271514 38.05587673 37.69021183 43.85725874 40.57421875 49.78125 C38.0071888 49.99843702 35.45851256 50.15590583 32.88671875 50.28125 C32.16548828 50.34828125 31.44425781 50.4153125 30.70117188 50.484375 C28.418502 50.5677602 26.7342897 50.54714773 24.57421875 49.78125 C23.49487305 48 23.49487305 48 22.54296875 45.8125 C21.47787953 43.52594383 21.47787953 43.52594383 19.57421875 41.78125 C14.32715237 40.58067319 9.11014167 40.70614677 3.76171875 40.78125 C2.29099122 40.77315396 0.82027878 40.76147287 -0.65039062 40.74609375 C-4.24294736 40.71631668 -7.83330088 40.73559497 -11.42578125 40.78125 C-11.85890625 41.895 -11.85890625 41.895 -12.30078125 43.03125 C-13.23957461 45.3260782 -14.31694678 47.56358105 -15.42578125 49.78125 C-20.70578125 49.78125 -25.98578125 49.78125 -31.42578125 49.78125 C-29.178018 43.03796025 -29.178018 43.03796025 -27.39453125 40.109375 C-27.00096436 39.45380615 -26.60739746 38.7982373 -26.2019043 38.12280273 C-25.78078369 37.43259033 -25.35966309 36.74237793 -24.92578125 36.03125 C-20.77091411 29.10698033 -16.78394171 22.1098863 -12.9140625 15.02246094 C-12.14736504 13.62606816 -11.36903391 12.23599047 -10.57836914 10.85302734 C-9.78506936 9.42707057 -9.04435835 7.97099669 -8.34936523 6.49462891 C-6.2001649 2.30907629 -4.87505141 0.32039969 0 0 Z " fill="#AE210D" transform="translate(917.42578125,587.21875)"/>
<path d="M0 0 C28.12556994 -0.51381733 49.52099027 4.8148651 71 24 C71.63164063 24.5053125 72.26328125 25.010625 72.9140625 25.53125 C78.94756473 31.11892694 79.04282271 40.26440582 80 48 C80.19722656 49.45599609 80.19722656 49.45599609 80.3984375 50.94140625 C81.11272042 56.95489622 81.10349414 62.95134231 81 69 C78.64490121 66.64490121 78.51919063 65.45619375 77.8125 62.25 C74.90799949 51.3768492 74.90799949 51.3768492 69 42 C63.9663334 40.53160918 59.20096154 40.86888332 54 41 C43.46545311 39.26353623 34.70861484 33.63043353 27.8203125 25.62109375 C25.79423887 22.70372163 24.58094291 19.76278844 23.1875 16.5 C18.62174416 7.29275304 9.16614542 4.47927092 0 1 C0 0.67 0 0.34 0 0 Z " fill="#0F0809" transform="translate(661,371)"/>
<path d="M0 0 C0.97453125 0.00451172 1.9490625 0.00902344 2.953125 0.01367188 C5.34381434 0.02539094 7.7343744 0.04179781 10.125 0.0625 C7.83404851 2.35345149 5.83580944 3.20161225 2.875 4.5 C0.95474881 5.34607753 -0.96182234 6.20054696 -2.875 7.0625 C-3.91398438 7.47371094 -4.95296875 7.88492187 -6.0234375 8.30859375 C-9.72689031 10.58647089 -10.54843329 12.72293595 -12.25 16.6875 C-17.28348881 27.57375229 -23.74810851 34.2161206 -34.875 39.0625 C-39.77118143 40.80520865 -43.73225615 41.0775809 -48.93554688 41.13842773 C-55.15421631 41.03933661 -55.15421631 41.03933661 -60.62109375 43.4453125 C-61.71850436 45.62191944 -62.27669233 47.69793078 -62.875 50.0625 C-63.7367625 52.23446566 -64.61271243 54.40083624 -65.5 56.5625 C-67.31476268 61.35905737 -68.79440513 66.05246922 -69.875 71.0625 C-70.205 71.0625 -70.535 71.0625 -70.875 71.0625 C-70.54518883 61.54346727 -69.91621271 52.16677419 -68.4375 42.75 C-68.25417114 41.5602356 -68.25417114 41.5602356 -68.06713867 40.34643555 C-65.92407154 27.38637981 -57.79748805 21.3560631 -47.57958984 13.93481445 C-33.44343994 3.97644863 -17.13410646 -0.15091015 0 0 Z " fill="#0D0809" transform="translate(863.875,370.9375)"/>
<path d="M0 0 C0.45420591 4.84486308 -1.10920376 8.63729124 -3 13 C-3.32677734 13.97453125 -3.32677734 13.97453125 -3.66015625 14.96875 C-5.73413331 18.11297178 -8.87031221 19.59259545 -12.0625 21.4375 C-24.1571817 28.71335794 -35.41500818 37.27140593 -45.7421875 46.8984375 C-47.30273154 48.35098541 -48.89374165 49.77123501 -50.5078125 51.1640625 C-55.83862158 55.77757617 -60.37492478 60.61628763 -64.73828125 66.15234375 C-66.21498619 68.01161474 -67.73227262 69.83955617 -69.29296875 71.62890625 C-81.32793329 85.43083132 -90.78178085 101.25486392 -99.91333008 117.06787109 C-100.4214624 117.94652832 -100.92959473 118.82518555 -101.453125 119.73046875 C-101.89817383 120.50801514 -102.34322266 121.28556152 -102.80175781 122.08666992 C-104 124 -104 124 -106 126 C-102.23870777 95.39086325 -81.71608773 65.83130942 -61 44 C-60.09636719 43.04351562 -59.19273437 42.08703125 -58.26171875 41.1015625 C-51.06775048 33.62597551 -43.31882358 27.18272278 -35 21 C-34.16130371 20.37013184 -34.16130371 20.37013184 -33.30566406 19.72753906 C-26.20042537 14.41416442 -18.85619208 9.54418646 -11.3125 4.875 C-10.53358398 4.38902344 -9.75466797 3.90304688 -8.95214844 3.40234375 C-7.85628418 2.73525391 -7.85628418 2.73525391 -6.73828125 2.0546875 C-6.08899658 1.65749512 -5.43971191 1.26030273 -4.77075195 0.85107422 C-3 0 -3 0 0 0 Z " fill="#D1A360" transform="translate(888,209)"/>
<path d="M0 0 C5.4140625 -0.061875 5.4140625 -0.061875 10.9375 -0.125 C12.05632568 -0.14320801 13.17515137 -0.16141602 14.32788086 -0.18017578 C22.06518719 -0.22257948 30.10134024 -0.18002505 36.4375 4.8125 C37.07558594 5.29332031 37.71367188 5.77414062 38.37109375 6.26953125 C42.41807239 10.56883949 42.44411448 15.60612247 42.30078125 21.21875 C41.71934904 26.59511013 40.04347841 30.22407379 35.94140625 33.7890625 C27.99368448 39.44494544 20.58289673 39.13762599 11.125 39.0625 C7.45375 39.041875 3.7825 39.02125 0 39 C0 26.13 0 13.26 0 0 Z " fill="#0C0708" transform="translate(829,590)"/>
<path d="M0 0 C9.30828371 6.68287036 20.87278031 21.47956027 23.71875 32.87890625 C23.85796875 33.92884766 23.85796875 33.92884766 24 35 C23.34 35 22.68 35 22 35 C21.41223366 37.7446344 21.41223366 37.7446344 22 41 C25.66732396 45.49766146 31.13793558 48.52984373 35.984375 51.60546875 C37.93990771 52.95842452 39.51223295 54.14378907 41 56 C41.1875 59.6875 41.1875 59.6875 41 63 C32.89231016 65.09230705 22.10034588 67.45790909 14.30078125 63.69921875 C5.65606728 57.31475258 0.51344118 47.50366894 -1.72265625 37.08984375 C-2.49982775 31.23369228 -2.50976867 25.47633689 -1 19.75 C0.66910096 13.32043502 0.15625111 6.58858842 0 0 Z " fill="#D4BA98" transform="translate(723,446)"/>
<path d="M0 0 C3 1 3 1 4.39453125 3.3515625 C15.92033408 29.95933872 20.89519839 62.99945672 11 91 C10.41527392 92.91925397 9.83069196 94.83855482 9.25 96.7590332 C7.22834662 103.40127014 5.01915674 109.73637632 2 116 C1.08017055 118.01939568 0.16359377 120.04027559 -0.75 122.0625 C-1.49962132 123.70850584 -2.24948419 125.35440182 -3 127 C-4.32 127 -5.64 127 -7 127 C-7.19270109 121.8502295 -6.54476068 117.37299339 -5.1875 112.4375 C-4.81769159 111.00945546 -4.44922255 109.58106346 -4.08203125 108.15234375 C-3.72181999 106.76810786 -3.36117099 105.38398578 -3 104 C2.18592869 84.12451766 3.04226501 63.06676867 1.125 42.6875 C1.04668945 41.85057617 0.96837891 41.01365234 0.88769531 40.15136719 C0.34536624 34.93378747 -0.67248247 30.07222322 -2 25 C-2.125 22 -2.125 22 -2 20 C-3.65 20 -5.3 20 -7 20 C-6.30777344 19.41605469 -6.30777344 19.41605469 -5.6015625 18.8203125 C-3.63930407 16.59003828 -3.13335946 14.73343182 -2.375 11.875 C-1.08333333 7.08333333 -1.08333333 7.08333333 0 6 C0.04080783 4.00041636 0.04254356 1.99954746 0 0 Z " fill="#754D1D" transform="translate(887,208)"/>
<path d="M0 0 C15.75293259 -1.92792167 15.75293259 -1.92792167 21.01318359 1.1953125 C24.99087035 4.60008141 28.01385724 8.73097862 31 13 C32.2795298 14.70832053 33.59729482 16.39128196 35 18 C35.66 18 36.32 18 37 18 C38.47769218 16.36567245 39.88269319 14.66523632 41.25 12.9375 C42.07113281 11.93976562 42.89226563 10.94203125 43.73828125 9.9140625 C45.96628852 7.18916401 45.96628852 7.18916401 47.29296875 4.7109375 C48.6310803 2.49140775 49.84112928 1.43056417 52 0 C54.09545898 -0.38574219 54.09545898 -0.38574219 56.37109375 -0.421875 C57.18586182 -0.43710205 58.00062988 -0.4523291 58.84008789 -0.46801758 C62.5720302 -0.42308906 66.27570639 -0.24594392 70 0 C68.63389732 3.03726958 67.06926193 5.20915026 64.76953125 7.609375 C64.13080078 8.28226563 63.49207031 8.95515625 62.83398438 9.6484375 C62.16689453 10.34195313 61.49980469 11.03546875 60.8125 11.75 C56.21742421 16.55996988 51.70569805 21.4096483 47.35424805 26.44238281 C46.59397879 27.31682266 45.81934559 28.18065441 45 29 C44.84344973 30.48638992 44.74933057 31.97949127 44.68359375 33.47265625 C44.62075195 34.82133789 44.62075195 34.82133789 44.55664062 36.19726562 C44.51732422 37.14279297 44.47800781 38.08832031 44.4375 39.0625 C44.37272461 40.4865918 44.37272461 40.4865918 44.30664062 41.93945312 C44.20020868 44.29278176 44.09956846 46.64637099 44 49 C38.72 49 33.44 49 28 49 C28.04382813 47.74445312 28.08765625 46.48890625 28.1328125 45.1953125 C28.37337751 35.54752289 28.37337751 35.54752289 24.953125 26.79296875 C22.41204882 24.34814546 19.77620048 22.17123739 17 20 C15.79661151 18.72108503 14.6263249 17.40977859 13.5 16.0625 C9.75640559 11.68150702 5.84920602 7.45659133 1.94140625 3.22265625 C0 1 0 1 0 0 Z " fill="#AAA9A9" transform="translate(570,588)"/>
<path d="M0 0 C0.66 0 1.32 0 2 0 C13.46230197 13.98203215 25.55714668 33.8844585 28 52 C26.77667969 52.03738281 25.55335938 52.07476562 24.29296875 52.11328125 C-12.30181678 53.44026836 -43.66287458 63.99457057 -71 89 C-71.66 88.67 -72.32 88.34 -73 88 C-60.30061463 64.86897665 -32.22935794 51.82512881 -7.81567383 44.51586914 C-3.1748201 43.19731005 0.9825222 42.88871235 5.8125 42.9375 C6.97394531 42.94652344 8.13539063 42.95554687 9.33203125 42.96484375 C10.21246094 42.97644531 11.09289062 42.98804688 12 43 C11.74831055 42.39115967 11.49662109 41.78231934 11.23730469 41.1550293 C10.07249666 38.3334927 8.91123731 35.51050794 7.75 32.6875 C7.35425781 31.73037109 6.95851563 30.77324219 6.55078125 29.78710938 C4.54784423 24.91110696 2.58757873 20.02043196 0.72265625 15.08984375 C0.39789307 14.23382568 0.07312988 13.37780762 -0.26147461 12.49584961 C-1.43563722 8.52776223 -1.33150926 5.11071488 -1 1 C-0.67 0.67 -0.34 0.34 0 0 Z " fill="#86190B" transform="translate(892,348)"/>
<path d="M0 0 C0.99 0 1.98 0 3 0 C3.86162403 10.77030035 -0.22694144 20.82150954 -4.828125 30.37890625 C-6.65197115 34.45824213 -7.84994091 38.68961594 -9 43 C-7.44152344 43.05607422 -7.44152344 43.05607422 -5.8515625 43.11328125 C8.13940937 43.72034145 18.44694946 47.39470696 30.83398438 53.87207031 C33.02208754 55.01150185 35.22079094 56.1280705 37.421875 57.2421875 C45.82265569 61.53649846 53.5839435 66.11115932 61 72 C61.93779297 72.70962891 61.93779297 72.70962891 62.89453125 73.43359375 C66.08437478 75.9249314 68.33205014 78.29344475 70 82 C70.0441022 83.66608306 70.04997752 85.33408283 70 87 C68.83333333 86.125 67.66666667 85.25 66.5 84.375 C65.76910156 83.82972656 65.03820312 83.28445313 64.28515625 82.72265625 C62.8231564 81.62053328 61.37145378 80.50452973 59.93359375 79.37109375 C56.79255439 76.91850138 53.89762274 74.8090201 50.1875 73.3125 C47 72 47 72 45.6953125 70.62890625 C30.66132834 56.18381087 3.20786546 53.32230726 -16.5625 52.4375 C-17.47580078 52.39431641 -18.38910156 52.35113281 -19.33007812 52.30664062 C-21.55327991 52.20188243 -23.77656707 52.09970983 -26 52 C-25.46006022 46.29313648 -23.88254127 41.75473814 -21.5 36.5625 C-21.14615234 35.78189209 -20.79230469 35.00128418 -20.42773438 34.19702148 C-15.03590385 22.51747616 -8.87153621 9.47367668 0 0 Z " fill="#C92711" transform="translate(642,348)"/>
<path d="M0 0 C14.68647731 -2.22522383 14.68647731 -2.22522383 20.09619141 1.40771484 C25.4594428 6.40334047 29.83278478 12.39981473 33 19 C36.81397517 17.72867494 37.83673229 16.013538 40.3125 12.875 C41.12460938 11.88628906 41.93671875 10.89757812 42.7734375 9.87890625 C44.96949509 7.18241783 44.96949509 7.18241783 46.2890625 4.71484375 C47.62963979 2.49422763 48.8393156 1.43167624 51 0 C53.09545898 -0.38574219 53.09545898 -0.38574219 55.37109375 -0.421875 C56.18586182 -0.43710205 57.00062988 -0.4523291 57.84008789 -0.46801758 C61.5720302 -0.42308906 65.27570639 -0.24594392 69 0 C64.65103381 6.11206059 59.79293014 11.60224258 54.6953125 17.0859375 C51.84746884 20.1649105 49.07947928 23.30153256 46.33984375 26.4765625 C45.27112096 27.69172835 44.1442894 28.8557106 43 30 C42.63105418 32.03060659 42.63105418 32.03060659 42.5859375 34.3515625 C42.54726562 35.20234375 42.50859375 36.053125 42.46875 36.9296875 C42.42234375 38.26386719 42.42234375 38.26386719 42.375 39.625 C42.33632812 40.5221875 42.29765625 41.419375 42.2578125 42.34375 C42.16341224 44.56215605 42.08061195 46.78105013 42 49 C37.05 49 32.1 49 27 49 C27 42.73 27 36.46 27 30 C26.34 30 25.68 30 25 30 C23.58984375 28.6015625 23.58984375 28.6015625 21.9375 26.625 C19.2092053 23.41657062 16.44855554 20.25019633 13.625 17.125 C12.87605469 16.29226563 12.12710937 15.45953125 11.35546875 14.6015625 C9.72119246 12.79654093 8.07725256 11.00024026 6.42578125 9.2109375 C5.60464844 8.31632813 4.78351563 7.42171875 3.9375 6.5 C3.18339844 5.6853125 2.42929688 4.870625 1.65234375 4.03125 C0 2 0 2 0 0 Z " fill="#B4210D" transform="translate(1097,588)"/>
<path d="M0 0 C3.96 0 7.92 0 12 0 C12 5.61 12 11.22 12 17 C20.25 17 28.5 17 37 17 C37 11.39 37 5.78 37 0 C40.96 0 44.92 0 49 0 C49 14.19 49 28.38 49 43 C45.37 43 41.74 43 38 43 C38 37.06 38 31.12 38 25 C29.42 25 20.84 25 12 25 C12 30.94 12 36.88 12 43 C8.04 43 4.08 43 0 43 C0 28.81 0 14.62 0 0 Z " fill="#A37130" transform="translate(701,591)"/>
<path d="M0 0 C13.53 0 27.06 0 41 0 C41 2.31 41 4.62 41 7 C31.1 7 21.2 7 11 7 C11 10.3 11 13.6 11 17 C19.91 17 28.82 17 38 17 C38 19.31 38 21.62 38 24 C29.09 24 20.18 24 11 24 C11 27.3 11 30.6 11 34 C21.23 34 31.46 34 42 34 C42 36.64 42 39.28 42 42 C28.14 42 14.28 42 0 42 C0 28.14 0 14.28 0 0 Z " fill="#A46F29" transform="translate(758,592)"/>
<path d="M0 0 C-2.53123931 1.68749287 -4.37568623 2.59893093 -7.18359375 3.59375 C-30.81718261 12.16103998 -53.06574197 23.21548305 -72 40 C-72.52577637 40.4655127 -73.05155273 40.93102539 -73.59326172 41.41064453 C-79.98042406 47.09779314 -86.04556101 52.8515983 -91.51171875 59.453125 C-92.00285156 59.96359375 -92.49398437 60.4740625 -93 61 C-93.66 61 -94.32 61 -95 61 C-94.5703876 45.51247307 -94.5703876 45.51247307 -90 40 C-89.40316406 39.24589844 -88.80632813 38.49179687 -88.19140625 37.71484375 C-78.14677223 25.79029657 -66.07267727 18.26368066 -52 12 C-51.36803711 11.71640625 -50.73607422 11.4328125 -50.08496094 11.140625 C-34.52217213 4.26347809 -17.0999079 -0.56999693 0 0 Z " fill="#714A1B" transform="translate(917,411)"/>
<path d="M0 0 C17.49 0 34.98 0 53 0 C53 2.97 53 5.94 53 9 C46.4 9 39.8 9 33 9 C33.01160156 11.58714844 33.02320313 14.17429687 33.03515625 16.83984375 C33.04294662 19.33520383 33.04902349 21.83056257 33.05493164 24.32592773 C33.05997204 26.06519168 33.0668043 27.80445136 33.07543945 29.54370117 C33.08751792 32.03825937 33.09323108 34.53276173 33.09765625 37.02734375 C33.10281754 37.80963852 33.10797882 38.59193329 33.11329651 39.39793396 C33.11349226 41.26567114 33.06199694 43.13329204 33 45 C32.67 45.33 32.34 45.66 32 46 C28.37 46 24.74 46 21 46 C21 33.79 21 21.58 21 9 C14.07 9 7.14 9 0 9 C0 6.03 0 3.06 0 0 Z " fill="#B27E39" transform="translate(644,588)"/>
<path d="M0 0 C3.465 -0.061875 6.93 -0.12375 10.5 -0.1875 C12.11358398 -0.22846802 12.11358398 -0.22846802 13.75976562 -0.27026367 C20.87989564 -0.33134966 26.85997774 0.26254469 32.4375 5.125 C34.57324102 9.05476348 35.19700766 12.53974662 35 17 C33.14393646 22.46507597 30.03272722 25.1730461 25.17871094 28.09716797 C22.50564912 29.20485315 20.4672503 29.22741389 17.578125 29.1953125 C16.65418945 29.19031738 15.73025391 29.18532227 14.77832031 29.18017578 C13.03180176 29.15286377 13.03180176 29.15286377 11.25 29.125 C7.5375 29.08375 3.825 29.0425 0 29 C0 19.43 0 9.86 0 0 Z " fill="#0A090B" transform="translate(524,598)"/>
<path d="M0 0 C3.67125 -0.061875 7.3425 -0.12375 11.125 -0.1875 C12.84420654 -0.22846802 12.84420654 -0.22846802 14.59814453 -0.27026367 C21.9229276 -0.32998705 26.27473312 0.57095778 31.875 5.5625 C34.57359469 9.04455767 34.59586513 12.37981465 34.3515625 16.66796875 C33.63472007 21.42302351 31.81435493 23.37623877 28.0625 26.25 C23.89148723 28.63343587 20.78195655 29.12671925 16.015625 29.09765625 C15.17290039 29.09515869 14.33017578 29.09266113 13.46191406 29.09008789 C12.40198242 29.08098389 11.34205078 29.07187988 10.25 29.0625 C6.8675 29.041875 3.485 29.02125 0 29 C0 19.43 0 9.86 0 0 Z " fill="#090607" transform="translate(1051,598)"/>
<path d="M0 0 C3.67125 -0.061875 7.3425 -0.12375 11.125 -0.1875 C12.84420654 -0.22846802 12.84420654 -0.22846802 14.59814453 -0.27026367 C21.90600465 -0.32984906 26.2365056 0.59696139 31.875 5.5 C34.69104263 9.15719822 34.71038833 12.888569 34.47265625 17.375 C33.68332069 21.75874793 32.48844137 23.15229276 29 26 C22.57172146 29.02959935 16.43534168 29.38613253 9.4375 29.1875 C4.7659375 29.0946875 4.7659375 29.0946875 0 29 C0 19.43 0 9.86 0 0 Z " fill="#090809" transform="translate(450,598)"/>
<path d="M0 0 C3.63 -0.103125 7.26 -0.20625 11 -0.3125 C12.69189453 -0.38078003 12.69189453 -0.38078003 14.41796875 -0.45043945 C22.50189573 -0.56089508 27.00718886 1.50629025 33 6.75 C35.13483038 11.55336835 34.52809813 16.4450444 32.875 21.3125 C29.86420009 25.62797987 26.14155282 28.02840993 21 29 C19.34010718 29.07911543 17.6773713 29.10778885 16.015625 29.09765625 C15.17290039 29.09515869 14.33017578 29.09266113 13.46191406 29.09008789 C12.40198242 29.08098389 11.34205078 29.07187988 10.25 29.0625 C6.8675 29.041875 3.485 29.02125 0 29 C0 19.43 0 9.86 0 0 Z " fill="#0B0708" transform="translate(977,598)"/>
<path d="M0 0 C1.02174001 8.9913121 -3.31053526 17.15069427 -8.6875 24.125 C-13.7674901 30.27505453 -13.7674901 30.27505453 -18 31 C-25.90776333 31.46075044 -33.32275498 30.94097391 -41 29 C-41.38912391 25.03093609 -41.57342767 22.79093472 -39.1875 19.5 C-35.64968003 16.42097513 -31.52333829 14.07029524 -27.5234375 11.6484375 C-25.04265542 10.19262066 -25.04265542 10.19262066 -23.65625 8.44921875 C-20.94392591 6.07593517 -17.52700716 5.40906421 -14.125 4.4375 C-12.71039692 4.02136449 -11.29632032 3.60343453 -9.8828125 3.18359375 C-8.88169434 2.88751221 -8.88169434 2.88751221 -7.86035156 2.58544922 C-5.35116627 1.79581322 -2.6196578 0 0 0 Z " fill="#AC7A40" transform="translate(811,480)"/>
<path d="M0 0 C9.30828371 6.68287036 20.87278031 21.47956027 23.71875 32.87890625 C23.85796875 33.92884766 23.85796875 33.92884766 24 35 C23.34 35 22.68 35 22 35 C21.79029441 39.14093698 21.79029441 39.14093698 23 43 C18.93547423 42.32510673 15.32959238 41.07017831 11.5 39.5625 C10.3965625 39.13066406 9.293125 38.69882812 8.15625 38.25390625 C5.43591386 37.17317865 2.71673885 36.08973667 0 35 C-0.33 35.99 -0.66 36.98 -1 38 C-2.93875051 32.18374848 -2.57926372 25.64143773 -1 19.75 C0.66910096 13.32043502 0.15625111 6.58858842 0 0 Z " fill="#CE9B5B" transform="translate(723,446)"/>
<path d="M0 0 C-6.17910574 6.52539537 -11.79870678 9.08570871 -20.85913086 9.47412109 C-29.99000257 9.58781455 -38.90988957 8.19571576 -46 2 C-46 1.34 -46 0.68 -46 0 C-30.53597647 -1.28104337 -15.46540548 -0.85579319 0 0 Z " fill="#D7AA65" transform="translate(790,516)"/>
<path d="M0 0 C-0.36061194 5.88999504 -1.85076941 9.72342729 -6 14 C-11.93640135 18.39585872 -17.01906511 19.1294531 -24.25 19.0625 C-25.51328125 19.05347656 -26.7765625 19.04445313 -28.078125 19.03515625 C-29.04234375 19.02355469 -30.0065625 19.01195312 -31 19 C-27.40162944 9.98408265 -15.31202583 5.37741628 -7.06640625 1.25 C-4 0 -4 0 0 0 Z " fill="#C43D1A" transform="translate(836,383)"/>
<path d="M0 0 C5.44844857 0.49022031 9.57863614 1.95447425 14.375 4.625 C15.02476807 4.97965332 15.67453613 5.33430664 16.34399414 5.69970703 C21.5563054 8.61062126 26.76119392 11.74970664 31 16 C31 16.66 31 17.32 31 18 C12.82653713 18.79398624 12.82653713 18.79398624 7 14 C3.65823794 10.84820891 1.31771121 7.43230133 0 3 C0 2.01 0 1.02 0 0 Z " fill="#D14320" transform="translate(700,384)"/>
<path d="M0 0 C2.95814719 2.61227152 4.71876108 5.66570307 6.6875 9.0625 C7.31011719 10.12597656 7.93273437 11.18945312 8.57421875 12.28515625 C10 15 10 15 10 17 C3.73 17 -2.54 17 -9 17 C-7.35848487 12.89621218 -5.61539709 9.46298399 -3.375 5.6875 C-2.74335937 4.61886719 -2.11171875 3.55023437 -1.4609375 2.44921875 C-0.97882812 1.64097656 -0.49671875 0.83273437 0 0 Z " fill="#170908" transform="translate(921,601)"/>
<path d="M0 0 C6.93 0.33 13.86 0.66 21 1 C14.28151294 7.71848706 9.01905013 10.16698482 -0.41479492 10.27026367 C-3.61440406 10.24092891 -6.80335953 10.14277799 -10 10 C-10 9.67 -10 9.34 -10 9 C-7.69 9 -5.38 9 -3 9 C-2.814375 7.88625 -2.814375 7.88625 -2.625 6.75 C-2 4 -2 4 0 0 Z " fill="#9E6E34" transform="translate(769,515)"/>
<path d="M0 0 C0.67289063 0.11214844 1.34578125 0.22429687 2.0390625 0.33984375 C14.49949345 2.71865329 25.80809354 9.27622043 37 15 C33.49098285 16.16967238 32.85096529 15.81089518 29.52734375 14.48828125 C28.6360376 14.14410156 27.74473145 13.79992187 26.82641602 13.4453125 C25.87307373 13.07148438 24.91973145 12.69765625 23.9375 12.3125 C16.72598611 9.58584115 9.59900081 7.15283259 2.0625 5.5 C1.34892334 5.34055908 0.63534668 5.18111816 -0.09985352 5.0168457 C-4.49931274 4.10995111 -8.53948769 3.86042726 -13 4 C-13.33 3.34 -13.66 2.68 -14 2 C-12.35 2 -10.7 2 -9 2 C-9 1.34 -9 0.68 -9 0 C-5.88121092 -1.55939454 -3.39788335 -0.59328122 0 0 Z " fill="#0F0B0B" transform="translate(653,403)"/>
<path d="M0 0 C6.91629562 2.32351369 15.81802873 5.83365373 20.98828125 11.00390625 C17.28316899 10.33858282 13.81601372 9.3576343 10.25 8.15625 C9.18330078 7.79853516 8.11660156 7.44082031 7.01757812 7.07226562 C5.36338867 6.51249023 5.36338867 6.51249023 3.67578125 5.94140625 C2.55365234 5.56435547 1.43152344 5.18730469 0.27539062 4.79882812 C-2.48790226 3.86989137 -5.25022053 2.93816183 -8.01171875 2.00390625 C-8.01171875 1.34390625 -8.01171875 0.68390625 -8.01171875 0.00390625 C-5.16798723 -1.41795951 -3.00160582 -0.70250349 0 0 Z " fill="#251611" transform="translate(669.01171875,407.99609375)"/>
<path d="M0 0 C6.73844784 3.21984946 13.08009664 6.42552922 19 11 C18.01 11.495 18.01 11.495 17 12 C14.85546875 11.14453125 14.85546875 11.14453125 12.1875 9.8125 C5.97218775 6.86146315 -0.3935664 4.88005026 -7 3 C-6.401875 2.87625 -5.80375 2.7525 -5.1875 2.625 C-2.73768652 2.04524015 -2.73768652 2.04524015 0 0 Z " fill="#2B231C" transform="translate(656,414)"/>
<path d="M0 0 C11.52164009 0.96355353 11.52164009 0.96355353 17 2 C16.67 3.98 16.34 5.96 16 8 C10.31497465 6.35433477 5.23318364 3.70967216 0 1 C0 0.67 0 0.34 0 0 Z " fill="#DBB986" transform="translate(641,406)"/>
<path d="M0 0 C6.27 0 12.54 0 19 0 C19.66 1.32 20.32 2.64 21 4 C20.030625 3.67 19.06125 3.34 18.0625 3 C13.70233163 1.73126248 9.50445434 1.81614472 5 2 C5.66 3.32 6.32 4.64 7 6 C3.28139821 4.46126823 2.64366459 3.52488612 0 0 Z " fill="#AEACAC" transform="translate(570,588)"/>
<path d="M0 0 C0 0.66 0 1.32 0 2 C-1.43359375 3.41015625 -1.43359375 3.41015625 -3.4375 5.0625 C-8.22341701 9.12068366 -12.6114377 13.52000931 -17 18 C-17.66 17.67 -18.32 17.34 -19 17 C-3.96619217 0 -3.96619217 0 0 0 Z " fill="#210B08" transform="translate(885,228)"/>
<path d="M0 0 C8.91 0 17.82 0 27 0 C25 2 25 2 22.80102539 2.1953125 C21.90891357 2.17210937 21.01680176 2.14890625 20.09765625 2.125 C19.12505859 2.10953125 18.15246094 2.0940625 17.15039062 2.078125 C15.09570062 2.02614043 13.04101311 1.97405748 10.98632812 1.921875 C10.01244141 1.90640625 9.03855469 1.8909375 8.03515625 1.875 C6.69529663 1.84019531 6.69529663 1.84019531 5.32836914 1.8046875 C2.72519861 1.83421768 2.72519861 1.83421768 0 4 C0 2.68 0 1.36 0 0 Z " fill="#B4B2B3" transform="translate(509,588)"/>
<path d="M0 0 C7.78808563 0.51648735 15.34925042 1.44876534 23 3 C23 3.33 23 3.66 23 4 C20.98177083 3.96744792 18.96354167 3.93489583 16.9453125 3.90234375 C14.91814596 3.87350758 14.91814596 3.87350758 13 5 C10.77092986 4.42983939 8.56411584 3.77074336 6.375 3.0625 C4.59222656 2.49208984 4.59222656 2.49208984 2.7734375 1.91015625 C1.85820313 1.60980469 0.94296875 1.30945313 0 1 C0 0.67 0 0.34 0 0 Z " fill="#A58A66" transform="translate(613,410)"/>
<path d="M0 0 C8.25 0 16.5 0 25 0 C25 0.33 25 0.66 25 1 C24.06148193 1.03758423 24.06148193 1.03758423 23.10400391 1.07592773 C20.27745381 1.19175273 17.45124831 1.31453985 14.625 1.4375 C13.14773438 1.49647461 13.14773438 1.49647461 11.640625 1.55664062 C10.22910156 1.61948242 10.22910156 1.61948242 8.7890625 1.68359375 C7.91975098 1.72025146 7.05043945 1.75690918 6.15478516 1.79467773 C3.9516738 1.87401544 3.9516738 1.87401544 2 3 C1.34786708 5.02463255 1.34786708 5.02463255 1 7 C1.66 7.33 2.32 7.66 3 8 C2.01 8 1.02 8 0 8 C0 5.36 0 2.72 0 0 Z " fill="#BE8842" transform="translate(645,588)"/>
<path d="M0 0 C3.63 0 7.26 0 11 0 C11 0.33 11 0.66 11 1 C8.94921875 1.22786458 6.8984375 1.45572917 4.84765625 1.68359375 C2.98859771 1.81886614 2.98859771 1.81886614 2 3 C1.76298761 5.85877909 1.57780818 8.69883297 1.4375 11.5625 C1.39431641 12.36880859 1.35113281 13.17511719 1.30664062 14.00585938 C1.20024738 16.00368805 1.09959112 18.0018207 1 20 C0.67 20 0.34 20 0 20 C0 13.4 0 6.8 0 0 Z " fill="#C3240E" transform="translate(1036,588)"/>
<path d="M0 0 C2.31 0.33 4.62 0.66 7 1 C7.33 1.99 7.66 2.98 8 4 C4.01803543 5.05404945 1.01804691 4.84098656 -3 4 C-2.01 2.68 -1.02 1.36 0 0 Z " fill="#231412" transform="translate(655,404)"/>
<path d="M0 0 C2.12493141 -0.02693575 4.24995912 -0.04636628 6.375 -0.0625 C7.55835938 -0.07410156 8.74171875 -0.08570313 9.9609375 -0.09765625 C13 0 13 0 15 1 C15 1.66 15 2.32 15 3 C9.5814234 3.22577402 5.22512279 2.46670113 0 1 C0 0.67 0 0.34 0 0 Z " fill="#C9975F" transform="translate(672,306)"/>
<path d="M0 0 C0.33 0 0.66 0 1 0 C2.60671734 6.57293456 1.03358813 11.64647324 -1 18 C-1.33 18 -1.66 18 -2 18 C-1.85805236 15.93722893 -1.71127784 13.87478969 -1.5625 11.8125 C-1.48128906 10.66394531 -1.40007813 9.51539063 -1.31640625 8.33203125 C-1.04596188 5.48401829 -0.62478253 2.78789518 0 0 Z " fill="#481E10" transform="translate(783,317)"/>
<path d="M0 0 C0.33 1.32 0.66 2.64 1 4 C-3.455 3.01 -3.455 3.01 -8 2 C-8 1.34 -8 0.68 -8 0 C-5.13822943 -1.43088528 -3.06624227 -0.59991697 0 0 Z " fill="#2A201C" transform="translate(669,408)"/>
<path d="M0 0 C3.7910119 1.44950455 7.3874638 3.15172566 11 5 C7.29218328 6.23593891 6.32489747 5.5678132 2.8125 4.0625 C1.91144531 3.68222656 1.01039063 3.30195313 0.08203125 2.91015625 C-0.60503906 2.60980469 -1.29210937 2.30945313 -2 2 C-1.34 1.34 -0.68 0.68 0 0 Z " fill="#402218" transform="translate(679,413)"/>
<path d="M0 0 C1.98 0.99 1.98 0.99 4 2 C3.01 4.64 2.02 7.28 1 10 C0.67 10 0.34 10 0 10 C0 6.7 0 3.4 0 0 Z " fill="#1B0E0C" transform="translate(784,312)"/>
<path d="M0 0 C2.64 0 5.28 0 8 0 C6.35 1.65 4.7 3.3 3 5 C2.01 3.35 1.02 1.7 0 0 Z " fill="#9B2212" transform="translate(732,283)"/>
<path d="M0 0 C3.63 0.33 7.26 0.66 11 1 C9.68 1.99 8.36 2.98 7 4 C4.69 3.01 2.38 2.02 0 1 C0 0.67 0 0.34 0 0 Z " fill="#C8A272" transform="translate(641,406)"/>
<path d="M0 0 C3.63 0 7.26 0 11 0 C11 0.33 11 0.66 11 1 C8.36 1 5.72 1 3 1 C3.66 2.32 4.32 3.64 5 5 C3.0625 4.1875 3.0625 4.1875 1 3 C0.67 2.01 0.34 1.02 0 0 Z " fill="#BDBCBD" transform="translate(572,589)"/>
<path d="M0 0 C2.625 -0.1875 2.625 -0.1875 5 0 C3.35 1.98 1.7 3.96 0 6 C-0.66 5.01 -1.32 4.02 -2 3 C-1.34 2.01 -0.68 1.02 0 0 Z " fill="#8C1F0F" transform="translate(878,228)"/>
<path d="M0 0 C0.99 0.33 1.98 0.66 3 1 C3.33 2.65 3.66 4.3 4 6 C1.525 7.485 1.525 7.485 -1 9 C-0.67 6.03 -0.34 3.06 0 0 Z " fill="#805B2C" transform="translate(887,208)"/>
<path d="M0 0 C0 2.31 0 4.62 0 7 C-0.66 7 -1.32 7 -2 7 C-2.66 5.35 -3.32 3.7 -4 2 C-1 0 -1 0 0 0 Z " fill="#B09065" transform="translate(716,471)"/>
<path d="M0 0 C2.64 0.33 5.28 0.66 8 1 C8 1.99 8 2.98 8 4 C4.31245243 3.50168276 2.39509338 2.89932357 0 0 Z " fill="#E8CA9B" transform="translate(627,413)"/>
<path d="M0 0 C-0.99 0 -1.98 0 -3 0 C-3 0.99 -3 1.98 -3 3 C-5.31 3.33 -7.62 3.66 -10 4 C-10.33 3.34 -10.66 2.68 -11 2 C-9.35 2 -7.7 2 -6 2 C-6 1.34 -6 0.68 -6 0 C-3.50907189 -1.24546405 -2.58919267 -0.7767578 0 0 Z " fill="#291B14" transform="translate(650,403)"/>
<path d="M0 0 C0.99 0 1.98 0 3 0 C2.8125 1.875 2.8125 1.875 2 4 C-0.5625 5.25 -0.5625 5.25 -3 6 C-2.42655063 3.13275314 -2.1385485 2.1385485 0 0 Z " fill="#D7AB6A" transform="translate(789,317)"/>
<path d="M0 0 C1.98 0.99 1.98 0.99 4 2 C3.34 4.64 2.68 7.28 2 10 C1.67 10 1.34 10 1 10 C0.67 6.7 0.34 3.4 0 0 Z " fill="#1E1310" transform="translate(718,443)"/>
<path d="M0 0 C2.97 0.33 5.94 0.66 9 1 C5 3 5 3 1 3 C0.67 2.01 0.34 1.02 0 0 Z " fill="#BF3217" transform="translate(667,306)"/>
</svg>
