<?xml version="1.0" encoding="UTF-8"?>
<svg version="1.1" xmlns="http://www.w3.org/2000/svg" width="448" height="406">
<path d="M0 0 C12.12669663 0.26362384 26.79093109 8.62342024 35.171875 17.23046875 C36.3914212 18.70278414 37.60109764 20.18333048 38.80078125 21.671875 C42.10358849 25.16827485 45.98514262 27.73705797 49.99023438 30.37475586 C54.12784549 33.15231888 56.92847476 36.06930686 60 40 C60.845625 40.845625 61.69125 41.69125 62.5625 42.5625 C64.9264838 44.9264838 67.02958046 47.29979544 69 50 C69 50.66 69 51.32 69 52 C69.56589844 52.21785156 70.13179688 52.43570313 70.71484375 52.66015625 C73.74224102 54.43519431 75.40076645 56.68321004 77.5625 59.4375 C82.69174482 65.93339016 85.48125906 69.24827045 94.03979492 70.4140625 C103.47926273 71.02612255 112.85980678 71.08715028 122.3125 71 C130.95605541 70.92126031 139.4066533 70.91780693 148 72 C155.22018265 70.61150334 158.63686352 65.48910718 163 60 C163.928125 59.1028125 163.928125 59.1028125 164.875 58.1875 C167.32206797 55.66845944 169.3023411 52.95243016 171.33984375 50.09765625 C173.37884923 47.52131285 175.64931184 45.29463598 178 43 C178.825 42.175 179.65 41.35 180.5 40.5 C188 33 188 33 190.61328125 30.40234375 C191.98662879 29.02000539 193.346932 27.62381846 194.66796875 26.19140625 C200.51061529 19.92820931 208.59688818 14.21294347 217.0625 12.3125 C223.24644657 10.65896646 229.50330039 6.49669961 234 2 C236.6015625 1.8046875 236.6015625 1.8046875 239.625 1.875 C240.62789063 1.89304688 241.63078125 1.91109375 242.6640625 1.9296875 C243.43492187 1.95289063 244.20578125 1.97609375 245 2 C260.94163558 32.73473834 262.93053778 67.9749161 253.09375 101.046875 C252.10866047 104.04980921 251.0686261 107.02578191 250 110 C249.54384803 111.28630848 249.0881396 112.5727743 248.6328125 113.859375 C247.43209705 117.24328606 246.21904566 120.62264398 245 124 C245.33 124.33 245.66 124.66 246 125 C246.29532195 126.57894904 246.56137009 128.16342227 246.8125 129.75 C247.64684439 134.18087439 248.86908116 136.6670864 252 140 C252.33 140.99 252.66 141.98 253 143 C253.61875 143.5775 254.2375 144.155 254.875 144.75 C257 147 257 147 258.4375 150.4375 C259.75567507 154.04621755 259.75567507 154.04621755 262.33984375 156.2890625 C265.23248399 159.23692201 267.16801216 162.34453221 269.125 165.9375 C269.45886719 166.53240234 269.79273438 167.12730469 270.13671875 167.74023438 C272.19984953 171.44173371 274.11614802 175.20507274 276 179 C276.7425 180.299375 276.7425 180.299375 277.5 181.625 C279.3612629 185.81284153 280.33160723 190.03008966 281.3515625 194.48828125 C281.75320413 196.92250546 281.75320413 196.92250546 283 198 C283.5402775 201.16448253 283.40076272 203.27513051 281.8359375 206.10546875 C278.98717268 210.11565308 276.85776611 212.62986084 272 214 C271.236875 214.474375 270.47375 214.94875 269.6875 215.4375 C264.22828267 218.61146356 258.43824458 220.15440932 252.375 221.75 C245.77742329 223.58344675 240.14960305 226.22677602 234.1328125 229.41015625 C231.57271178 230.70935949 229.22896436 231.66470863 226.5 232.5 C222.97563705 234.01044126 222.33362351 234.59819919 220.1875 237.5 C217.67293814 240.77367487 215.89993725 241.51211906 211.875 242.3125 C204.28974825 243.95786839 199.58286952 248.91904821 194 254 C192.92640312 254.88154773 191.8495987 255.75920448 190.76953125 256.6328125 C187.88002457 258.88520038 187.88002457 258.88520038 186 262 C185.34 262 184.68 262 184 262 C183.59587891 262.87205078 183.59587891 262.87205078 183.18359375 263.76171875 C181.99610071 266.0073739 180.61611151 267.80822256 179.0625 269.8125 C176.30474678 273.86606497 175.33617644 277.37072313 174.5 282.1875 C171.47629798 299.00264288 165.26898972 307.00429095 152 317 C151.06027344 317.72316406 150.12054688 318.44632812 149.15234375 319.19140625 C138.21686853 327.21537618 127.64393331 331.87045865 114 331 C112.66582031 330.93232422 112.66582031 330.93232422 111.3046875 330.86328125 C104.01357288 330.06354361 99.98506188 327.07330631 94.58203125 322.25 C92.29564092 320.25762356 90.1078493 318.71311568 87.5 317.1875 C84.63960171 315.48767315 82.64758514 313.98624806 81 311 C81 310.34 81 309.68 81 309 C80.39027344 308.76539063 79.78054687 308.53078125 79.15234375 308.2890625 C76.43498008 306.66160331 75.84619222 305.24442967 74.5625 302.375 C73.05075593 299.13422754 71.51039972 296.14322874 69.5 293.1875 C67.28323718 289.79715686 66.01354521 286.38541294 64.6875 282.5625 C61.48354774 273.88471082 55.84598373 268.19875615 48.73828125 262.484375 C47 261 47 261 44.75 258.63671875 C41.61832433 255.63404677 38.32676983 253.39492036 34.6875 251.0625 C26.50439958 245.72028776 26.50439958 245.72028776 22.625 242.75 C16.35291304 237.95131278 9.97780301 233.81985514 2.84375 230.41796875 C0.72597714 229.36199135 -1.35232765 228.2261336 -3.40625 227.05078125 C-11.35473049 222.50349624 -18.51555394 219.76605929 -27.5390625 218.08203125 C-31.59469902 216.81407265 -33.25453926 215.18609024 -36 212 C-36.52207031 211.47535156 -37.04414062 210.95070313 -37.58203125 210.41015625 C-39.71981939 208.06876924 -40.94413256 206.48185668 -41.3125 203.3046875 C-40.92492414 199.20607275 -39.7083468 195.86281931 -38.1875 192.0625 C-37.92646484 191.38509766 -37.66542969 190.70769531 -37.39648438 190.00976562 C-30.84778451 173.14484227 -22.65181469 158.1288992 -11.875 143.625 C-11.37202393 142.94646973 -10.86904785 142.26793945 -10.35083008 141.56884766 C-8.08351756 138.56242932 -5.86614119 135.86835985 -3.171875 133.21875 C-0.72993679 131.12785434 -0.72993679 131.12785434 -0.375 127.875 C-1.08383055 123.48025062 -2.63471539 120.26345442 -4.56640625 116.28515625 C-7.14362583 110.37932065 -8.76293611 104.17827563 -10.45654297 97.97167969 C-10.91999281 96.29026868 -11.41212763 94.61680771 -11.91015625 92.9453125 C-16.03834397 78.2995812 -16.6029121 63.04869906 -15 48 C-14.89816406 46.80503906 -14.79632813 45.61007813 -14.69140625 44.37890625 C-13.29471052 31.00230488 -9.8166503 9.8166503 0 0 Z M232 32 C229.9202049 34.04566212 229.9202049 34.04566212 227.9375 36.6875 C227.24527344 37.55761719 226.55304688 38.42773438 225.83984375 39.32421875 C223.94127533 41.84850334 223.94127533 41.84850334 223.10546875 44.4375 C221.56344549 48.01194261 218.9908223 50.49833867 216.375 53.3125 C208.27255323 62.3963596 201.35043568 73.66296898 200 86 C199.83951172 87.36705078 199.83951172 87.36705078 199.67578125 88.76171875 C199.41681425 91.1731387 199.19178892 93.58245025 199 96 C205.84038973 99.08299255 211.51921698 101.49359434 219 99 C220.89470816 98.9314505 222.7916834 98.91519628 224.6875 98.9375 C225.68136719 98.94652344 226.67523438 98.95554687 227.69921875 98.96484375 C228.45847656 98.97644531 229.21773438 98.98804688 230 99 C229.95875 100.11375 229.9175 101.2275 229.875 102.375 C229.58878141 106.04366025 229.58878141 106.04366025 232 108 C233.81112854 106.18887146 233.3001024 103.18074949 233.42578125 100.71484375 C233.96966971 98.1433983 234.67920225 96.64443783 235.93359375 94.37890625 C238.51709076 89.42454812 239.12960586 84.502447 239.75 79 C239.87068848 77.98542725 239.99137695 76.97085449 240.11572266 75.92553711 C241.39319298 64.50690388 241.68097062 53.5466907 239.6875 42.1875 C239.57003418 41.51082275 239.45256836 40.83414551 239.33154297 40.13696289 C238.7865924 37.41951781 238.22363146 35.30741625 236.58203125 33.05078125 C234.9000343 31.72336227 234.9000343 31.72336227 232 32 Z M7 37 C0.87570051 57.41433164 3.20451604 81.37335205 7 102 C8.32 102.33 9.64 102.66 11 103 C11.33 101.35 11.66 99.7 12 98 C18.51580907 97.08332724 23.90318245 96.98298256 30.296875 98.51953125 C35.4823678 99.44123011 40.7526143 99.14804536 46 99 C48.87618325 84.61908376 40.75493509 73.57474666 33.27294922 61.97753906 C32.21733415 60.33763074 31.18557475 58.68239482 30.16015625 57.0234375 C28.03377375 53.65055491 26.06880526 50.865811 22.9375 48.375 C19.96852491 45.97455205 18.22006214 43.71906538 16.17578125 40.55078125 C14.90681926 38.70106689 14.90681926 38.70106689 12 37 C9.37468476 36.83286431 9.37468476 36.83286431 7 37 Z " fill="#B4210D" transform="translate(98,48)"/>
<path d="M0 0 C12.12669663 0.26362384 26.79093109 8.62342024 35.171875 17.23046875 C36.3914212 18.70278414 37.60109764 20.18333048 38.80078125 21.671875 C42.10358849 25.16827485 45.98514262 27.73705797 49.99023438 30.37475586 C54.12784549 33.15231888 56.92847476 36.06930686 60 40 C60.845625 40.845625 61.69125 41.69125 62.5625 42.5625 C64.9264838 44.9264838 67.02958046 47.29979544 69 50 C69 50.66 69 51.32 69 52 C69.56589844 52.21785156 70.13179688 52.43570313 70.71484375 52.66015625 C73.74224102 54.43519431 75.40076645 56.68321004 77.5625 59.4375 C82.69174482 65.93339016 85.48125906 69.24827045 94.03979492 70.4140625 C103.47926273 71.02612255 112.85980678 71.08715028 122.3125 71 C130.95605541 70.92126031 139.4066533 70.91780693 148 72 C155.22018265 70.61150334 158.63686352 65.48910718 163 60 C163.928125 59.1028125 163.928125 59.1028125 164.875 58.1875 C167.32206797 55.66845944 169.3023411 52.95243016 171.33984375 50.09765625 C173.37884923 47.52131285 175.64931184 45.29463598 178 43 C178.825 42.175 179.65 41.35 180.5 40.5 C188 33 188 33 190.61328125 30.40234375 C191.98662879 29.02000539 193.346932 27.62381846 194.66796875 26.19140625 C200.51061529 19.92820931 208.59688818 14.21294347 217.0625 12.3125 C223.24644657 10.65896646 229.50330039 6.49669961 234 2 C236.6015625 1.8046875 236.6015625 1.8046875 239.625 1.875 C240.62789063 1.89304688 241.63078125 1.91109375 242.6640625 1.9296875 C243.43492187 1.95289063 244.20578125 1.97609375 245 2 C260.94163558 32.73473834 262.93053778 67.9749161 253.09375 101.046875 C252.10866047 104.04980921 251.0686261 107.02578191 250 110 C249.54384803 111.28630848 249.0881396 112.5727743 248.6328125 113.859375 C247.43209705 117.24328606 246.21904566 120.62264398 245 124 C245.33 124.33 245.66 124.66 246 125 C246.29532195 126.57894904 246.56137009 128.16342227 246.8125 129.75 C247.64684439 134.18087439 248.86908116 136.6670864 252 140 C252.33 140.99 252.66 141.98 253 143 C253.61875 143.5775 254.2375 144.155 254.875 144.75 C257 147 257 147 258.4375 150.4375 C259.75567507 154.04621755 259.75567507 154.04621755 262.33984375 156.2890625 C265.23248399 159.23692201 267.16801216 162.34453221 269.125 165.9375 C269.45886719 166.53240234 269.79273438 167.12730469 270.13671875 167.74023438 C272.19984953 171.44173371 274.11614802 175.20507274 276 179 C276.7425 180.299375 276.7425 180.299375 277.5 181.625 C279.3612629 185.81284153 280.33160723 190.03008966 281.3515625 194.48828125 C281.75320413 196.92250546 281.75320413 196.92250546 283 198 C283.5402775 201.16448253 283.40076272 203.27513051 281.8359375 206.10546875 C278.98717268 210.11565308 276.85776611 212.62986084 272 214 C271.236875 214.474375 270.47375 214.94875 269.6875 215.4375 C264.22828267 218.61146356 258.43824458 220.15440932 252.375 221.75 C245.77742329 223.58344675 240.14960305 226.22677602 234.1328125 229.41015625 C231.57271178 230.70935949 229.22896436 231.66470863 226.5 232.5 C222.97563705 234.01044126 222.33362351 234.59819919 220.1875 237.5 C217.67293814 240.77367487 215.89993725 241.51211906 211.875 242.3125 C204.28974825 243.95786839 199.58286952 248.91904821 194 254 C192.92640312 254.88154773 191.8495987 255.75920448 190.76953125 256.6328125 C187.88002457 258.88520038 187.88002457 258.88520038 186 262 C185.34 262 184.68 262 184 262 C183.59587891 262.87205078 183.59587891 262.87205078 183.18359375 263.76171875 C181.99610071 266.0073739 180.61611151 267.80822256 179.0625 269.8125 C176.30474678 273.86606497 175.33617644 277.37072313 174.5 282.1875 C171.47629798 299.00264288 165.26898972 307.00429095 152 317 C151.06027344 317.72316406 150.12054688 318.44632812 149.15234375 319.19140625 C138.21686853 327.21537618 127.64393331 331.87045865 114 331 C112.66582031 330.93232422 112.66582031 330.93232422 111.3046875 330.86328125 C104.01357288 330.06354361 99.98506188 327.07330631 94.58203125 322.25 C92.29564092 320.25762356 90.1078493 318.71311568 87.5 317.1875 C84.63960171 315.48767315 82.64758514 313.98624806 81 311 C81 310.34 81 309.68 81 309 C80.39027344 308.76539063 79.78054687 308.53078125 79.15234375 308.2890625 C76.43498008 306.66160331 75.84619222 305.24442967 74.5625 302.375 C73.05075593 299.13422754 71.51039972 296.14322874 69.5 293.1875 C67.28323718 289.79715686 66.01354521 286.38541294 64.6875 282.5625 C61.48354774 273.88471082 55.84598373 268.19875615 48.73828125 262.484375 C47 261 47 261 44.75 258.63671875 C41.61832433 255.63404677 38.32676983 253.39492036 34.6875 251.0625 C26.50439958 245.72028776 26.50439958 245.72028776 22.625 242.75 C16.35291304 237.95131278 9.97780301 233.81985514 2.84375 230.41796875 C0.72597714 229.36199135 -1.35232765 228.2261336 -3.40625 227.05078125 C-11.35473049 222.50349624 -18.51555394 219.76605929 -27.5390625 218.08203125 C-31.59469902 216.81407265 -33.25453926 215.18609024 -36 212 C-36.52207031 211.47535156 -37.04414062 210.95070313 -37.58203125 210.41015625 C-39.71981939 208.06876924 -40.94413256 206.48185668 -41.3125 203.3046875 C-40.92492414 199.20607275 -39.7083468 195.86281931 -38.1875 192.0625 C-37.92646484 191.38509766 -37.66542969 190.70769531 -37.39648438 190.00976562 C-30.84778451 173.14484227 -22.65181469 158.1288992 -11.875 143.625 C-11.37202393 142.94646973 -10.86904785 142.26793945 -10.35083008 141.56884766 C-8.08351756 138.56242932 -5.86614119 135.86835985 -3.171875 133.21875 C-0.72993679 131.12785434 -0.72993679 131.12785434 -0.375 127.875 C-1.08383055 123.48025062 -2.63471539 120.26345442 -4.56640625 116.28515625 C-7.14362583 110.37932065 -8.76293611 104.17827563 -10.45654297 97.97167969 C-10.91999281 96.29026868 -11.41212763 94.61680771 -11.91015625 92.9453125 C-16.03834397 78.2995812 -16.6029121 63.04869906 -15 48 C-14.89816406 46.80503906 -14.79632813 45.61007813 -14.69140625 44.37890625 C-13.29471052 31.00230488 -9.8166503 9.8166503 0 0 Z M0 3 C-16.21425828 36.31366217 -17.80253886 69.44815656 -5.88989258 104.5925293 C-3.8846105 110.01751876 -1.43527619 115.26770722 0.94726562 120.53515625 C1.33978516 121.42589844 1.73230469 122.31664062 2.13671875 123.234375 C2.49467529 124.03069336 2.85263184 124.82701172 3.22143555 125.64746094 C4.09274805 128.28025094 4.27317088 130.24428876 4 133 C2.12890625 135.4375 2.12890625 135.4375 -0.4375 138 C-12.99944705 151.15207574 -31 175.86305397 -31 195 C-29.07800781 195.07347656 -29.07800781 195.07347656 -27.1171875 195.1484375 C-4.89065894 196.07526132 14.36943124 199.58017131 34.3828125 209.671875 C35.0229126 209.99333496 35.6630127 210.31479492 36.32250977 210.64599609 C37.88225392 211.42950903 39.44121015 212.21459019 41 213 C39.72322388 212.56131592 39.72322388 212.56131592 38.4206543 212.11376953 C35.21147007 211.01535755 32.00001908 209.92412143 28.78686523 208.83740234 C27.4060356 208.36882915 26.02612089 207.89754953 24.6472168 207.42333984 C9.68581293 202.21753721 9.68581293 202.21753721 -6 201 C-2.5079825 203.88780073 1.3792215 205.74322969 5.4375 207.6875 C12.93722953 211.347589 19.98439818 215.48310568 27 220 C26.04222656 219.62488281 25.08445313 219.24976563 24.09765625 218.86328125 C6.92009691 212.22312461 -11.36703822 205.60881075 -30 206 C-27.25953988 207.82697342 -25.88665716 208.37365694 -22.8125 209.125 C-15.8018631 211.14984288 -9.54229071 214.5877286 -3.09228516 217.93261719 C-1.07957337 218.95940551 0.94775557 219.94391872 2.98828125 220.9140625 C17.50763388 227.8552139 30.89186948 236.35779095 43 247 C43.86109375 247.75152344 44.7221875 248.50304687 45.609375 249.27734375 C48.10314527 251.48773104 50.55998594 253.73050273 53 256 C53.72316406 256.66902344 54.44632812 257.33804688 55.19140625 258.02734375 C59.44371234 262.10213422 62.72342452 266.26890312 65.7734375 271.3125 C66.38058594 272.1478125 66.38058594 272.1478125 67 273 C67.66 273 68.32 273 69 273 C69.13277344 271.90300781 69.26554687 270.80601562 69.40234375 269.67578125 C69.58062985 268.22134199 69.7590208 266.76691558 69.9375 265.3125 C70.02451172 264.59126953 70.11152344 263.87003906 70.20117188 263.12695312 C70.56372685 260.18622941 70.93412465 257.30375855 71.5625 254.40625 C72.12646968 251.30441678 72.09431706 248.33738902 72.0625 245.1875 C72.05347656 244.02605469 72.04445313 242.86460937 72.03515625 241.66796875 C72.02355469 240.78753906 72.01195312 239.90710938 72 239 C74 240 74 240 75.109375 242.234375 C77.01147538 248.14089724 76.50158668 254.53655575 75 260.5 C72.06677468 272.48796435 74.82233625 283.82941037 80.875 294.4375 C84.00942703 299.3097486 87.33163031 304.11054344 93 306 C101.22527699 306.45993096 109.01723847 306.06006749 117 304 C117.67174175 300.79767901 117.67174175 300.79767901 117 297 C112.9992541 292.04974374 107.20216584 288.64423438 101.8828125 285.26171875 C100 284 100 284 98 282 C97.875 278.875 97.875 278.875 98 276 C99.423125 275.5359375 99.423125 275.5359375 100.875 275.0625 C103.86080408 274.12605258 103.86080408 274.12605258 106 273 C107.59262066 272.84824451 109.19064856 272.75099675 110.7890625 272.68359375 C111.73007813 272.64169922 112.67109375 272.59980469 113.640625 272.55664062 C114.62546875 272.51732422 115.6103125 272.47800781 116.625 272.4375 C117.61757812 272.39431641 118.61015625 272.35113281 119.6328125 272.30664062 C122.08839838 272.20038931 124.54408703 272.09835036 127 272 C127.01030746 271.39010223 127.02061493 270.78020447 127.03123474 270.15182495 C127.32634669 252.76732292 127.6486373 235.38345738 128 218 C128.01697937 217.14136353 128.03395874 216.28272705 128.05145264 215.39807129 C128.20866685 207.53064383 128.44342825 199.67250751 128.82861328 191.8125 C128.95602176 188.97829657 129.06022141 186.14799821 129.14404297 183.3125 C129.27333896 179.0477088 129.46548036 174.7890052 129.69195557 170.52832031 C129.7706656 168.87744216 129.8307123 167.22553882 129.86956787 165.57324219 C130.1894374 152.90156313 133.60809905 146.36917753 142.58976746 137.50756836 C144.72439172 135.22560996 146.32069222 132.62542275 148 130 C149.63128715 128.29868939 151.2984207 126.63100688 153 125 C162.25205896 115.29700035 170.34590138 104.9387381 177.96875 93.91796875 C185.19931489 83.53098418 192.53347074 73.36026014 200.78515625 63.7578125 C203.68742597 60.14405161 206.0358001 56.297224 208.33203125 52.27734375 C210.2677353 49.63445039 212.19237262 48.64065342 215 47 C217.07700632 44.77622521 217.07700632 44.77622521 218.9375 42.25 C219.97003906 40.9196875 219.97003906 40.9196875 221.0234375 39.5625 C221.67570313 38.716875 222.32796875 37.87125 223 37 C226.92630146 32.09691135 231.11069779 27.94905178 236 24 C235.34 23.34 234.68 22.68 234 22 C235.485 21.01 235.485 21.01 237 20 C237.97739546 17.62267515 237.97739546 17.62267515 238.625 14.9375 C239.92172211 10.07827789 239.92172211 10.07827789 241 9 C241.04063832 7.33382885 241.042721 5.66611905 241 4 C237.47782219 4.5588752 234.93068385 5.40143716 231.91796875 7.30078125 C230.77932373 8.01536499 230.77932373 8.01536499 229.61767578 8.74438477 C228.81571777 9.26186279 228.01375977 9.77934082 227.1875 10.3125 C226.34944824 10.84866943 225.51139648 11.38483887 224.64794922 11.93725586 C216.46342513 17.23854255 208.63669582 22.93997866 201 29 C200.43619629 29.44666016 199.87239258 29.89332031 199.29150391 30.35351562 C185.63178203 41.28777268 172.98602632 53.58590702 163 68 C162.55172852 68.64694824 162.10345703 69.29389648 161.64160156 69.96044922 C154.84576368 79.88687494 149.03395496 90.07911438 144 101 C143.71253906 101.61504395 143.42507812 102.23008789 143.12890625 102.86376953 C139.4737937 110.74457959 136.7759446 118.49416009 135 127 C136.74307026 112.7273306 138.79140985 98.80928901 143.37426758 85.13891602 C144.32758633 82.28480163 145 80.03462898 145 77 C129.68393135 74.46991196 114.94616545 74.38458575 99.54394531 76.28808594 C97.36465769 76.55515084 95.18485186 76.78369041 93 77 C91.92770142 77.13643921 91.92770142 77.13643921 90.83374023 77.27563477 C88.73828125 77.44140625 88.73828125 77.44140625 85 77 C82.93692733 74.91767626 81.76332398 73.39416369 80.3125 70.9375 C79.46360566 69.63890762 78.60785509 68.34477709 77.74609375 67.0546875 C77.07876221 66.04680176 77.07876221 66.04680176 76.39794922 65.01855469 C58.00857984 38.46541009 29.22513441 17.99198534 1 3 C0.67 3 0.34 3 0 3 Z M232 32 C229.9202049 34.04566212 229.9202049 34.04566212 227.9375 36.6875 C227.24527344 37.55761719 226.55304688 38.42773438 225.83984375 39.32421875 C223.94127533 41.84850334 223.94127533 41.84850334 223.10546875 44.4375 C221.56344549 48.01194261 218.9908223 50.49833867 216.375 53.3125 C208.27255323 62.3963596 201.35043568 73.66296898 200 86 C199.83951172 87.36705078 199.83951172 87.36705078 199.67578125 88.76171875 C199.41681425 91.1731387 199.19178892 93.58245025 199 96 C205.84038973 99.08299255 211.51921698 101.49359434 219 99 C220.89470816 98.9314505 222.7916834 98.91519628 224.6875 98.9375 C225.68136719 98.94652344 226.67523438 98.95554687 227.69921875 98.96484375 C228.45847656 98.97644531 229.21773438 98.98804688 230 99 C229.95875 100.11375 229.9175 101.2275 229.875 102.375 C229.58878141 106.04366025 229.58878141 106.04366025 232 108 C233.81112854 106.18887146 233.3001024 103.18074949 233.42578125 100.71484375 C233.96966971 98.1433983 234.67920225 96.64443783 235.93359375 94.37890625 C238.51709076 89.42454812 239.12960586 84.502447 239.75 79 C239.87068848 77.98542725 239.99137695 76.97085449 240.11572266 75.92553711 C241.39319298 64.50690388 241.68097062 53.5466907 239.6875 42.1875 C239.57003418 41.51082275 239.45256836 40.83414551 239.33154297 40.13696289 C238.7865924 37.41951781 238.22363146 35.30741625 236.58203125 33.05078125 C234.9000343 31.72336227 234.9000343 31.72336227 232 32 Z " fill="#71150A" transform="translate(98,48)"/>
<path d="M0 0 C12.12669663 0.26362384 26.79093109 8.62342024 35.171875 17.23046875 C36.3914212 18.70278414 37.60109764 20.18333048 38.80078125 21.671875 C42.10358849 25.16827485 45.98514262 27.73705797 49.99023438 30.37475586 C54.12784549 33.15231888 56.92847476 36.06930686 60 40 C60.845625 40.845625 61.69125 41.69125 62.5625 42.5625 C64.9264838 44.9264838 67.02958046 47.29979544 69 50 C69 50.66 69 51.32 69 52 C69.56589844 52.21785156 70.13179688 52.43570313 70.71484375 52.66015625 C73.74224102 54.43519431 75.40076645 56.68321004 77.5625 59.4375 C82.69174482 65.93339016 85.48125906 69.24827045 94.03979492 70.4140625 C103.47926273 71.02612255 112.85980678 71.08715028 122.3125 71 C130.95605541 70.92126031 139.4066533 70.91780693 148 72 C155.22018265 70.61150334 158.63686352 65.48910718 163 60 C163.928125 59.1028125 163.928125 59.1028125 164.875 58.1875 C167.32206797 55.66845944 169.3023411 52.95243016 171.33984375 50.09765625 C173.37884923 47.52131285 175.64931184 45.29463598 178 43 C178.825 42.175 179.65 41.35 180.5 40.5 C188 33 188 33 190.61328125 30.40234375 C191.98662879 29.02000539 193.346932 27.62381846 194.66796875 26.19140625 C200.51061529 19.92820931 208.59688818 14.21294347 217.0625 12.3125 C223.24644657 10.65896646 229.50330039 6.49669961 234 2 C236.6015625 1.8046875 236.6015625 1.8046875 239.625 1.875 C240.62789063 1.89304688 241.63078125 1.91109375 242.6640625 1.9296875 C243.43492187 1.95289063 244.20578125 1.97609375 245 2 C260.94163558 32.73473834 262.93053778 67.9749161 253.09375 101.046875 C252.10866047 104.04980921 251.0686261 107.02578191 250 110 C249.54384803 111.28630848 249.0881396 112.5727743 248.6328125 113.859375 C247.43209705 117.24328606 246.21904566 120.62264398 245 124 C245.33 124.33 245.66 124.66 246 125 C246.29532195 126.57894904 246.56137009 128.16342227 246.8125 129.75 C247.64684439 134.18087439 248.86908116 136.6670864 252 140 C252.33 140.99 252.66 141.98 253 143 C253.61875 143.5775 254.2375 144.155 254.875 144.75 C257 147 257 147 258.4375 150.4375 C259.75567507 154.04621755 259.75567507 154.04621755 262.33984375 156.2890625 C265.23248399 159.23692201 267.16801216 162.34453221 269.125 165.9375 C269.45886719 166.53240234 269.79273438 167.12730469 270.13671875 167.74023438 C272.19984953 171.44173371 274.11614802 175.20507274 276 179 C276.7425 180.299375 276.7425 180.299375 277.5 181.625 C279.3612629 185.81284153 280.33160723 190.03008966 281.3515625 194.48828125 C281.75320413 196.92250546 281.75320413 196.92250546 283 198 C283.5402775 201.16448253 283.40076272 203.27513051 281.8359375 206.10546875 C278.98717268 210.11565308 276.85776611 212.62986084 272 214 C271.236875 214.474375 270.47375 214.94875 269.6875 215.4375 C264.22828267 218.61146356 258.43824458 220.15440932 252.375 221.75 C245.77742329 223.58344675 240.14960305 226.22677602 234.1328125 229.41015625 C231.57271178 230.70935949 229.22896436 231.66470863 226.5 232.5 C222.97563705 234.01044126 222.33362351 234.59819919 220.1875 237.5 C217.67293814 240.77367487 215.89993725 241.51211906 211.875 242.3125 C204.28974825 243.95786839 199.58286952 248.91904821 194 254 C192.92640312 254.88154773 191.8495987 255.75920448 190.76953125 256.6328125 C187.88002457 258.88520038 187.88002457 258.88520038 186 262 C185.34 262 184.68 262 184 262 C183.59587891 262.87205078 183.59587891 262.87205078 183.18359375 263.76171875 C181.99610071 266.0073739 180.61611151 267.80822256 179.0625 269.8125 C176.30474678 273.86606497 175.33617644 277.37072313 174.5 282.1875 C171.47629798 299.00264288 165.26898972 307.00429095 152 317 C151.06027344 317.72316406 150.12054688 318.44632812 149.15234375 319.19140625 C138.21686853 327.21537618 127.64393331 331.87045865 114 331 C112.66582031 330.93232422 112.66582031 330.93232422 111.3046875 330.86328125 C104.01357288 330.06354361 99.98506188 327.07330631 94.58203125 322.25 C92.29564092 320.25762356 90.1078493 318.71311568 87.5 317.1875 C84.63960171 315.48767315 82.64758514 313.98624806 81 311 C81 310.34 81 309.68 81 309 C80.39027344 308.76539063 79.78054687 308.53078125 79.15234375 308.2890625 C76.43498008 306.66160331 75.84619222 305.24442967 74.5625 302.375 C73.05075593 299.13422754 71.51039972 296.14322874 69.5 293.1875 C67.28323718 289.79715686 66.01354521 286.38541294 64.6875 282.5625 C61.48354774 273.88471082 55.84598373 268.19875615 48.73828125 262.484375 C47 261 47 261 44.75 258.63671875 C41.61832433 255.63404677 38.32676983 253.39492036 34.6875 251.0625 C26.50439958 245.72028776 26.50439958 245.72028776 22.625 242.75 C16.35291304 237.95131278 9.97780301 233.81985514 2.84375 230.41796875 C0.72597714 229.36199135 -1.35232765 228.2261336 -3.40625 227.05078125 C-11.35473049 222.50349624 -18.51555394 219.76605929 -27.5390625 218.08203125 C-31.59469902 216.81407265 -33.25453926 215.18609024 -36 212 C-36.52207031 211.47535156 -37.04414062 210.95070313 -37.58203125 210.41015625 C-39.71981939 208.06876924 -40.94413256 206.48185668 -41.3125 203.3046875 C-40.92492414 199.20607275 -39.7083468 195.86281931 -38.1875 192.0625 C-37.92646484 191.38509766 -37.66542969 190.70769531 -37.39648438 190.00976562 C-30.84778451 173.14484227 -22.65181469 158.1288992 -11.875 143.625 C-11.37202393 142.94646973 -10.86904785 142.26793945 -10.35083008 141.56884766 C-8.08351756 138.56242932 -5.86614119 135.86835985 -3.171875 133.21875 C-0.72993679 131.12785434 -0.72993679 131.12785434 -0.375 127.875 C-1.08383055 123.48025062 -2.63471539 120.26345442 -4.56640625 116.28515625 C-7.14362583 110.37932065 -8.76293611 104.17827563 -10.45654297 97.97167969 C-10.91999281 96.29026868 -11.41212763 94.61680771 -11.91015625 92.9453125 C-16.03834397 78.2995812 -16.6029121 63.04869906 -15 48 C-14.89816406 46.80503906 -14.79632813 45.61007813 -14.69140625 44.37890625 C-13.29471052 31.00230488 -9.8166503 9.8166503 0 0 Z M0 3 C-16.21425828 36.31366217 -17.80253886 69.44815656 -5.88989258 104.5925293 C-3.8846105 110.01751876 -1.43527619 115.26770722 0.94726562 120.53515625 C1.33978516 121.42589844 1.73230469 122.31664062 2.13671875 123.234375 C2.49467529 124.03069336 2.85263184 124.82701172 3.22143555 125.64746094 C4.09274805 128.28025094 4.27317088 130.24428876 4 133 C2.12890625 135.4375 2.12890625 135.4375 -0.4375 138 C-12.99944705 151.15207574 -31 175.86305397 -31 195 C-29.07800781 195.07347656 -29.07800781 195.07347656 -27.1171875 195.1484375 C-4.89065894 196.07526132 14.36943124 199.58017131 34.3828125 209.671875 C35.0229126 209.99333496 35.6630127 210.31479492 36.32250977 210.64599609 C37.88225392 211.42950903 39.44121015 212.21459019 41 213 C39.72322388 212.56131592 39.72322388 212.56131592 38.4206543 212.11376953 C35.21147007 211.01535755 32.00001908 209.92412143 28.78686523 208.83740234 C27.4060356 208.36882915 26.02612089 207.89754953 24.6472168 207.42333984 C9.68581293 202.21753721 9.68581293 202.21753721 -6 201 C-2.5079825 203.88780073 1.3792215 205.74322969 5.4375 207.6875 C12.93722953 211.347589 19.98439818 215.48310568 27 220 C26.04222656 219.62488281 25.08445313 219.24976563 24.09765625 218.86328125 C6.92009691 212.22312461 -11.36703822 205.60881075 -30 206 C-27.25953988 207.82697342 -25.88665716 208.37365694 -22.8125 209.125 C-15.8018631 211.14984288 -9.54229071 214.5877286 -3.09228516 217.93261719 C-1.07957337 218.95940551 0.94775557 219.94391872 2.98828125 220.9140625 C17.50763388 227.8552139 30.89186948 236.35779095 43 247 C43.86109375 247.75152344 44.7221875 248.50304687 45.609375 249.27734375 C48.10314527 251.48773104 50.55998594 253.73050273 53 256 C53.72316406 256.66902344 54.44632812 257.33804688 55.19140625 258.02734375 C59.44371234 262.10213422 62.72342452 266.26890312 65.7734375 271.3125 C66.38058594 272.1478125 66.38058594 272.1478125 67 273 C67.66 273 68.32 273 69 273 C69.13277344 271.90300781 69.26554687 270.80601562 69.40234375 269.67578125 C69.58062985 268.22134199 69.7590208 266.76691558 69.9375 265.3125 C70.02451172 264.59126953 70.11152344 263.87003906 70.20117188 263.12695312 C70.56372685 260.18622941 70.93412465 257.30375855 71.5625 254.40625 C72.12646968 251.30441678 72.09431706 248.33738902 72.0625 245.1875 C72.05347656 244.02605469 72.04445313 242.86460937 72.03515625 241.66796875 C72.02355469 240.78753906 72.01195312 239.90710938 72 239 C74 240 74 240 75.109375 242.234375 C77.01147538 248.14089724 76.50158668 254.53655575 75 260.5 C72.06677468 272.48796435 74.82233625 283.82941037 80.875 294.4375 C84.00942703 299.3097486 87.33163031 304.11054344 93 306 C101.22527699 306.45993096 109.01723847 306.06006749 117 304 C117.67174175 300.79767901 117.67174175 300.79767901 117 297 C112.9992541 292.04974374 107.20216584 288.64423438 101.8828125 285.26171875 C100 284 100 284 98 282 C97.875 278.875 97.875 278.875 98 276 C99.423125 275.5359375 99.423125 275.5359375 100.875 275.0625 C103.86080408 274.12605258 103.86080408 274.12605258 106 273 C110.03588297 272.72847271 114.08102578 272.76829853 118.125 272.75 C119.79949219 272.7190625 119.79949219 272.7190625 121.5078125 272.6875 C128.07212596 272.65653626 133.06436123 273.12296097 139 276 C141 278 141 278 141.4375 280.375 C140.81672944 284.09962338 139.00866552 284.80999071 136 287 C133.16932502 288.8205586 130.30198261 290.56889013 127.42578125 292.31640625 C124.77930948 293.93315439 124.77930948 293.93315439 123 297 C122.92094936 299.33199388 122.91201231 301.66832622 123 304 C131.81251469 306.22799468 142.57934726 308.31023242 151 304 C155.70068811 299.90763623 158.51627537 294.62164459 161 289 C161.28875 288.37738281 161.5775 287.75476563 161.875 287.11328125 C165.55406607 278.95919731 166.45726104 269.49133686 164 260.8125 C162.3561059 254.54515373 161.92852242 249.45594574 164.9375 243.5625 C180.29947087 218.94067446 210.66579793 204.41029042 238 198 C249.53726976 195.76541301 261.28500373 195.45194909 273 195 C268.38937856 172.75748453 255.51861893 150.63398914 239.08203125 134.9765625 C237.34107898 131.79633923 238.1962584 129.44617973 239 126 C240.3046875 122.82421875 240.3046875 122.82421875 241.875 119.6875 C244.14572409 114.9563732 245.95740694 110.39551368 247.3515625 105.34375 C248.67736108 100.55170694 250.33376588 95.84809772 252.01953125 91.171875 C260.51325413 63.6941739 255.58036012 32.17449527 244.39453125 6.3515625 C243.16344386 3.6907648 243.16344386 3.6907648 240 3 C237.34063117 4.29925685 234.89361694 5.65122828 232.375 7.1875 C231.62589355 7.63730225 230.87678711 8.08710449 230.10498047 8.55053711 C217.74468051 16.08513449 205.95599427 24.53485305 195 34 C194.1853125 34.70382813 193.370625 35.40765625 192.53125 36.1328125 C171.68622156 54.53712558 155.66473477 75.69400596 144 101 C143.71253906 101.61504395 143.42507812 102.23008789 143.12890625 102.86376953 C139.4737937 110.74457959 136.7759446 118.49416009 135 127 C136.74307026 112.7273306 138.79140985 98.80928901 143.37426758 85.13891602 C144.32758633 82.28480163 145 80.03462898 145 77 C129.68393135 74.46991196 114.94616545 74.38458575 99.54394531 76.28808594 C97.36465769 76.55515084 95.18485186 76.78369041 93 77 C91.92770142 77.13643921 91.92770142 77.13643921 90.83374023 77.27563477 C88.73828125 77.44140625 88.73828125 77.44140625 85 77 C82.93692733 74.91767626 81.76332398 73.39416369 80.3125 70.9375 C79.46360566 69.63890762 78.60785509 68.34477709 77.74609375 67.0546875 C77.07876221 66.04680176 77.07876221 66.04680176 76.39794922 65.01855469 C58.00857984 38.46541009 29.22513441 17.99198534 1 3 C0.67 3 0.34 3 0 3 Z " fill="#0B0909" transform="translate(98,48)"/>
<path d="M0 0 C8.53311654 3.99422476 16.29080858 8.59492557 24 14 C24.84763916 14.5885376 24.84763916 14.5885376 25.71240234 15.18896484 C70.49014537 46.31450453 103.05475755 89.56985738 113 144 C109.62510589 142.39937119 107.33487203 140.5896388 104.625 138 C94.42140493 128.69145713 83.05409842 121.49415917 70.89355469 115.02294922 C69.17267547 114.09328394 67.47900976 113.11368087 65.7890625 112.12890625 C55.09216175 106.19938966 43.43007339 103.63219738 31.61865234 100.75854492 C29.21465384 100.06217877 27.18719404 99.20227747 25 98 C35.66865123 97.49107141 45.55177791 99.02996486 56 101 C47.12128124 70.05901038 30.04644906 42.66283604 6 21 C5.34 20.67 4.68 20.34 4 20 C1.82072644 36.72515177 0.29509453 53.12945907 1 70 C1.05583252 71.38251953 1.05583252 71.38251953 1.11279297 72.79296875 C1.73404939 85.84618055 3.8719718 98.26062521 6.96728516 110.95410156 C8.2964014 116.44296579 9.3736921 121.34587609 9 127 C7.68 127 6.36 127 5 127 C3.55823435 123.83525884 2.12238346 120.66786674 0.6875 117.5 C0.08131836 116.1696875 0.08131836 116.1696875 -0.53710938 114.8125 C-12.79835391 87.69820315 -17.74148507 59.2026012 -11 30 C-10.80664062 29.00097656 -10.61328125 28.00195312 -10.4140625 26.97265625 C-8.39840889 17.43102324 -4.10989837 8.78600602 0 0 Z " fill="#CE9F5B" transform="translate(98,51)"/>
<path d="M0 0 C0.66 0 1.32 0 2 0 C0.47684257 4.26484081 -1.73167954 7.93464956 -4.125 11.75 C-12.36627263 25.22779234 -19.06472021 39.38317158 -22 55 C-21.47535156 54.855625 -20.95070313 54.71125 -20.41015625 54.5625 C-11.96529753 52.53910623 -3.62125853 52.81997372 5 53 C2.76226821 55.44440129 0.51300524 56.95538745 -2.375 58.5625 C-22.32395956 70.32801775 -35.68517264 87.03683192 -47.74609375 106.44140625 C-49.26783512 108.88439625 -50.86547114 111.24570456 -52.53515625 113.58984375 C-73.37180683 143.55160501 -74.17335792 188.78778783 -75 224 C-77.64 223.67 -80.28 223.34 -83 223 C-83.2228488 161.79389468 -83.2228488 161.79389468 -82.1875 142.8125 C-82.04808202 139.97766774 -81.93677133 137.14898173 -81.8515625 134.3125 C-81.72203543 130.04780642 -81.5315429 125.78902431 -81.30703735 121.52832031 C-81.22898415 119.87742625 -81.16937509 118.22552796 -81.13070679 116.57324219 C-80.81237454 103.96891369 -77.45926568 97.39821117 -68.49453735 88.60009766 C-66.87913978 86.87060333 -65.57360843 85.0580057 -64.23901367 83.10546875 C-63.50013916 82.08066406 -62.76126465 81.05585938 -62 80 C-61.34 80 -60.68 80 -60 80 C-59.7628125 79.44183594 -59.525625 78.88367188 -59.28125 78.30859375 C-57.70247877 75.46391754 -55.74176343 73.42131753 -53.5 71.0625 C-45.94771964 62.88903641 -39.35988573 54.06762371 -33.03125 44.91796875 C-25.82301756 34.56306561 -18.51488462 24.41252466 -10.29296875 14.8359375 C-7.05290493 10.8286354 -4.32764045 6.57286794 -1.59375 2.203125 C-1.0678125 1.47609375 -0.541875 0.7490625 0 0 Z " fill="#8C1B0C" transform="translate(308,97)"/>
<path d="M0 0 C28.19638648 1.19476214 55.71149291 13.60772562 75.5390625 33.2734375 C79.53244172 37.99288567 78.27874852 45.206013 78 51 C77.60962939 53.53740896 77.09147409 56.00006209 76.51171875 58.5 C75.60062194 62.95115999 75.32696123 67.4741682 75 72 C74.34 72 73.68 72 73 72 C71.83891728 70.47931686 70.74826529 68.90478366 69.6875 67.3125 C53.51508285 44.61283701 28.54544599 29.22590288 4 17 C3.01338379 16.5047583 3.01338379 16.5047583 2.00683594 15.99951172 C-6.44976044 11.78813518 -14.86567743 8.47997628 -24 6 C-24 5.67 -24 5.34 -24 5 C-11.67697741 5.18697 -0.7788099 7.53497968 11 11 C12.01449219 11.28230469 13.02898437 11.56460937 14.07421875 11.85546875 C19.88092589 13.50541222 25.4354419 15.66762139 31 18 C23.2785941 13.02868387 15.48822733 8.58682841 7.20703125 4.61523438 C4.44058741 3.27866875 2.18994989 2.18994989 0 0 Z " fill="#E1BF8F" transform="translate(92,249)"/>
<path d="M0 0 C12.12669663 0.26362384 26.79093109 8.62342024 35.171875 17.23046875 C36.3914212 18.70278414 37.60109764 20.18333048 38.80078125 21.671875 C42.10358849 25.16827485 45.98514262 27.73705797 49.99023438 30.37475586 C54.12784549 33.15231888 56.92847476 36.06930686 60 40 C60.845625 40.845625 61.69125 41.69125 62.5625 42.5625 C64.9264838 44.9264838 67.02958046 47.29979544 69 50 C69 50.66 69 51.32 69 52 C69.56589844 52.21785156 70.13179688 52.43570313 70.71484375 52.66015625 C73.74224102 54.43519431 75.40076645 56.68321004 77.5625 59.4375 C82.69174482 65.93339016 85.48125906 69.24827045 94.03979492 70.4140625 C103.47926273 71.02612255 112.85980678 71.08715028 122.3125 71 C130.95605541 70.92126031 139.4066533 70.91780693 148 72 C155.22018265 70.61150334 158.63686352 65.48910718 163 60 C163.928125 59.1028125 163.928125 59.1028125 164.875 58.1875 C167.32206797 55.66845944 169.3023411 52.95243016 171.33984375 50.09765625 C173.37884923 47.52131285 175.64931184 45.29463598 178 43 C178.825 42.175 179.65 41.35 180.5 40.5 C188 33 188 33 190.61328125 30.40234375 C191.98662879 29.02000539 193.346932 27.62381846 194.66796875 26.19140625 C200.51061529 19.92820931 208.59688818 14.21294347 217.0625 12.3125 C223.24644657 10.65896646 229.50330039 6.49669961 234 2 C236.1640625 1.8046875 236.1640625 1.8046875 238.625 1.875 C239.85089844 1.90207031 239.85089844 1.90207031 241.1015625 1.9296875 C241.72804688 1.95289063 242.35453125 1.97609375 243 2 C242.67 2.66 242.34 3.32 242 4 C240.75863281 4.39058594 240.75863281 4.39058594 239.4921875 4.7890625 C234.92577699 6.37249344 231.17868908 8.77446586 227.125 11.375 C226.29145996 11.90665771 225.45791992 12.43831543 224.59912109 12.98608398 C190.07103052 35.28588616 162.35385483 63.42420489 145 101 C144.44441406 102.18335938 143.88882813 103.36671875 143.31640625 104.5859375 C139.57444629 112.89103567 137.10418586 121.1624194 135 130 C134.67 130 134.34 130 134 130 C134.67915675 111.69672561 139.0854327 94.25082128 145 77 C129.73489653 75.7391655 114.77222922 75.40473107 99.54394531 77.28833008 C97.3647775 77.55514271 95.18422288 77.77907287 93 78 C92.29746094 78.10328613 91.59492188 78.20657227 90.87109375 78.31298828 C87.99121138 78.58450838 85.74081425 78.60816924 83.44287109 76.72167969 C81.8959796 74.84720495 80.57124203 72.91470651 79.25 70.875 C78.21352789 69.39310322 77.17307277 67.91398528 76.12890625 66.4375 C75.60828613 65.68984375 75.08766602 64.9421875 74.55126953 64.171875 C55.96177344 38.14541022 28.67363327 19.26527074 1 4 C-3.39000717 12.12151326 -6.59309575 20.09230524 -9 29 C-9.28875 30.05832031 -9.5775 31.11664063 -9.875 32.20703125 C-16.20503254 56.401146 -12.95504638 81.52021166 -4.7265625 104.89453125 C-3.34897201 108.88658111 -2.19232271 112.94948527 -1 117 C-1.99 117.99 -1.99 117.99 -3 119 C-6.67927077 111.60231729 -8.87050914 103.96129154 -11 96 C-11.41958984 94.58267578 -11.41958984 94.58267578 -11.84765625 93.13671875 C-15.99439875 78.40432204 -16.61273989 63.1409658 -15 48 C-14.89816406 46.80503906 -14.79632813 45.61007813 -14.69140625 44.37890625 C-13.29471052 31.00230488 -9.8166503 9.8166503 0 0 Z " fill="#0E0A0A" transform="translate(98,48)"/>
<path d="M0 0 C28.12556994 -0.51381733 49.52099027 4.8148651 71 24 C71.63164062 24.5053125 72.26328125 25.010625 72.9140625 25.53125 C78.94756473 31.11892694 79.04282271 40.26440582 80 48 C80.19722656 49.45599609 80.19722656 49.45599609 80.3984375 50.94140625 C81.11272042 56.95489622 81.10349414 62.95134231 81 69 C78.64490121 66.64490121 78.51919063 65.45619375 77.8125 62.25 C74.90799949 51.3768492 74.90799949 51.3768492 69 42 C63.9663334 40.53160918 59.20096154 40.86888332 54 41 C43.46545311 39.26353623 34.70861484 33.63043353 27.8203125 25.62109375 C25.79423887 22.70372163 24.58094291 19.76278844 23.1875 16.5 C18.62174416 7.29275304 9.16614542 4.47927092 0 1 C0 0.67 0 0.34 0 0 Z " fill="#0F0809" transform="translate(112,214)"/>
<path d="M0 0 C0.97453125 0.00451172 1.9490625 0.00902344 2.953125 0.01367188 C5.34381434 0.02539094 7.7343744 0.04179781 10.125 0.0625 C7.83404851 2.35345149 5.83580944 3.20161225 2.875 4.5 C0.95474881 5.34607753 -0.96182234 6.20054696 -2.875 7.0625 C-3.91398437 7.47371094 -4.95296875 7.88492188 -6.0234375 8.30859375 C-9.72689031 10.58647089 -10.54843329 12.72293595 -12.25 16.6875 C-17.28348881 27.57375229 -23.74810851 34.2161206 -34.875 39.0625 C-39.77118143 40.80520865 -43.73225615 41.0775809 -48.93554688 41.13842773 C-55.15421631 41.03933661 -55.15421631 41.03933661 -60.62109375 43.4453125 C-61.71850436 45.62191944 -62.27669233 47.69793078 -62.875 50.0625 C-63.7367625 52.23446566 -64.61271243 54.40083624 -65.5 56.5625 C-67.31476268 61.35905737 -68.79440513 66.05246922 -69.875 71.0625 C-70.205 71.0625 -70.535 71.0625 -70.875 71.0625 C-70.54518883 61.54346727 -69.91621271 52.16677419 -68.4375 42.75 C-68.25417114 41.5602356 -68.25417114 41.5602356 -68.06713867 40.34643555 C-65.92407154 27.38637981 -57.79748805 21.3560631 -47.57958984 13.93481445 C-33.44343994 3.97644863 -17.13410646 -0.15091015 0 0 Z " fill="#0D0809" transform="translate(314.875,213.9375)"/>
<path d="M0 0 C0.45420591 4.84486308 -1.10920376 8.63729124 -3 13 C-3.32677734 13.97453125 -3.32677734 13.97453125 -3.66015625 14.96875 C-5.73413331 18.11297178 -8.87031221 19.59259545 -12.0625 21.4375 C-24.1571817 28.71335794 -35.41500818 37.27140593 -45.7421875 46.8984375 C-47.30273154 48.35098541 -48.89374165 49.77123501 -50.5078125 51.1640625 C-55.83862158 55.77757617 -60.37492478 60.61628763 -64.73828125 66.15234375 C-66.21498619 68.01161474 -67.73227262 69.83955617 -69.29296875 71.62890625 C-81.32793329 85.43083132 -90.78178085 101.25486392 -99.91333008 117.06787109 C-100.4214624 117.94652832 -100.92959473 118.82518555 -101.453125 119.73046875 C-101.89817383 120.50801514 -102.34322266 121.28556152 -102.80175781 122.08666992 C-104 124 -104 124 -106 126 C-102.23870777 95.39086325 -81.71608773 65.83130942 -61 44 C-60.09636719 43.04351562 -59.19273437 42.08703125 -58.26171875 41.1015625 C-51.06775048 33.62597551 -43.31882358 27.18272278 -35 21 C-34.16130371 20.37013184 -34.16130371 20.37013184 -33.30566406 19.72753906 C-26.20042537 14.41416442 -18.85619208 9.54418646 -11.3125 4.875 C-10.53358398 4.38902344 -9.75466797 3.90304688 -8.95214844 3.40234375 C-7.85628418 2.73525391 -7.85628418 2.73525391 -6.73828125 2.0546875 C-6.08899658 1.65749512 -5.43971191 1.26030273 -4.77075195 0.85107422 C-3 0 -3 0 0 0 Z " fill="#D1A361" transform="translate(339,52)"/>
<path d="M0 0 C4.39987031 2.00961905 7.25429608 4.9103155 10.625 8.3125 C11.24600586 8.93842041 11.86701172 9.56434082 12.50683594 10.20922852 C18.23200693 16.07848938 23.27896138 22.30060301 28 29 C28.62600098 29.88341064 28.62600098 29.88341064 29.26464844 30.78466797 C39.1173527 44.81041389 52 63.22302919 52 81 C47.82255877 81.18566405 44.21441312 80.88655979 40.125 80 C32.47378581 78.48045816 24.76183023 78.83620991 17 79 C17.58910156 79.68707031 18.17820312 80.37414062 18.78515625 81.08203125 C19.53667969 81.98308594 20.28820312 82.88414062 21.0625 83.8125 C21.81660156 84.70582031 22.57070312 85.59914063 23.34765625 86.51953125 C23.89292969 87.33808594 24.43820313 88.15664062 25 89 C23.6149693 93.15509209 20.65995008 94.62686829 17.1875 97 C15.93077459 97.87469118 14.67425875 98.74968357 13.41796875 99.625 C12.82677246 100.03363281 12.23557617 100.44226563 11.62646484 100.86328125 C9.71666572 102.19801927 7.84984787 103.58349181 6 105 C-7.45569638 73.20153298 -6.62549865 33.26846133 0 0 Z M3 14 C-3.12429949 34.41433164 -0.79548396 58.37335205 3 79 C4.32 79.33 5.64 79.66 7 80 C7.33 78.35 7.66 76.7 8 75 C14.51580907 74.08332724 19.90318245 73.98298256 26.296875 75.51953125 C31.4823678 76.44123011 36.7526143 76.14804536 42 76 C44.87618325 61.61908376 36.75493509 50.57474666 29.27294922 38.97753906 C28.21733415 37.33763074 27.18557475 35.68239482 26.16015625 34.0234375 C24.03377375 30.65055491 22.06880526 27.865811 18.9375 25.375 C15.96852491 22.97455205 14.22006214 20.71906538 12.17578125 17.55078125 C10.90681926 15.70106689 10.90681926 15.70106689 8 14 C5.37468476 13.83286431 5.37468476 13.83286431 3 14 Z " fill="#0D0A09" transform="translate(102,71)"/>
<path d="M0 0 C9.30828371 6.68287036 20.87278031 21.47956027 23.71875 32.87890625 C23.85796875 33.92884766 23.85796875 33.92884766 24 35 C23.34 35 22.68 35 22 35 C21.41223366 37.7446344 21.41223366 37.7446344 22 41 C25.66732396 45.49766146 31.13793558 48.52984373 35.984375 51.60546875 C37.93990771 52.95842452 39.51223295 54.14378907 41 56 C41.1875 59.6875 41.1875 59.6875 41 63 C32.89231016 65.09230705 22.10034588 67.45790909 14.30078125 63.69921875 C5.65606728 57.31475258 0.51344118 47.50366894 -1.72265625 37.08984375 C-2.49982775 31.23369228 -2.50976867 25.47633689 -1 19.75 C0.66910096 13.32043502 0.15625111 6.58858842 0 0 Z " fill="#D4BA98" transform="translate(174,289)"/>
<path d="M0 0 C3 1 3 1 4.39453125 3.3515625 C15.92033408 29.95933872 20.89519839 62.99945672 11 91 C10.41527392 92.91925397 9.83069196 94.83855482 9.25 96.7590332 C7.22834662 103.40127014 5.01915674 109.73637632 2 116 C1.08017055 118.01939568 0.16359377 120.04027559 -0.75 122.0625 C-1.49962132 123.70850584 -2.24948419 125.35440182 -3 127 C-4.32 127 -5.64 127 -7 127 C-7.19270109 121.8502295 -6.54476068 117.37299339 -5.1875 112.4375 C-4.81769159 111.00945546 -4.44922255 109.58106346 -4.08203125 108.15234375 C-3.72181999 106.76810786 -3.36117099 105.38398578 -3 104 C2.18592869 84.12451766 3.04226501 63.06676867 1.125 42.6875 C1.04668945 41.85057617 0.96837891 41.01365234 0.88769531 40.15136719 C0.34536624 34.93378747 -0.67248247 30.07222322 -2 25 C-2.125 22 -2.125 22 -2 20 C-3.65 20 -5.3 20 -7 20 C-6.30777344 19.41605469 -6.30777344 19.41605469 -5.6015625 18.8203125 C-3.63930407 16.59003828 -3.13335946 14.73343182 -2.375 11.875 C-1.08333333 7.08333333 -1.08333333 7.08333333 0 6 C0.04080783 4.00041636 0.04254356 1.99954746 0 0 Z " fill="#754D1D" transform="translate(338,51)"/>
<path d="M0 0 C0.66 0 1.32 0 2 0 C13.46230197 13.98203215 25.55714668 33.8844585 28 52 C26.77667969 52.03738281 25.55335938 52.07476562 24.29296875 52.11328125 C-12.30181678 53.44026836 -43.66287458 63.99457057 -71 89 C-71.66 88.67 -72.32 88.34 -73 88 C-60.30061463 64.86897665 -32.22935794 51.82512881 -7.81567383 44.51586914 C-3.1748201 43.19731005 0.9825222 42.88871235 5.8125 42.9375 C6.97394531 42.94652344 8.13539063 42.95554688 9.33203125 42.96484375 C10.21246094 42.97644531 11.09289062 42.98804688 12 43 C11.74831055 42.39115967 11.49662109 41.78231934 11.23730469 41.1550293 C10.07249666 38.3334927 8.91123731 35.51050794 7.75 32.6875 C7.35425781 31.73037109 6.95851563 30.77324219 6.55078125 29.78710938 C4.54784423 24.91110696 2.58757873 20.02043196 0.72265625 15.08984375 C0.39789307 14.23382568 0.07312988 13.37780762 -0.26147461 12.49584961 C-1.43563722 8.52776223 -1.33150926 5.11071488 -1 1 C-0.67 0.67 -0.34 0.34 0 0 Z " fill="#86190B" transform="translate(343,191)"/>
<path d="M0 0 C2.5223041 11.00428488 4.68375817 21.67029259 5 33 C5.05994141 34.43859375 5.05994141 34.43859375 5.12109375 35.90625 C5.47301304 51.63911258 3.78878444 67.48241189 0.625 82.875 C0.42817627 83.84219971 0.23135254 84.80939941 0.02856445 85.8059082 C-1.3618782 92.16703141 -3.40028381 98.03346483 -6 104 C-12.87014167 100.40878958 -18.87384845 95.70778149 -25 91 C-23.74833586 87.48197311 -22.37397315 84.95810067 -19.875 82.1875 C-19.33617187 81.58292969 -18.79734375 80.97835937 -18.2421875 80.35546875 C-17.83226562 79.90816406 -17.42234375 79.46085937 -17 79 C-24.99866727 78.78701774 -32.48979842 79.05947306 -40.35546875 80.5546875 C-43.6440895 81.1084582 -46.67623315 81.15108031 -50 81 C-49.13443386 56.76414797 -31.08141901 31.69953153 -16 14 C-15.06994141 12.88431641 -15.06994141 12.88431641 -14.12109375 11.74609375 C-4.15808824 0 -4.15808824 0 0 0 Z M-6 9 C-8.0797951 11.04566212 -8.0797951 11.04566212 -10.0625 13.6875 C-10.75472656 14.55761719 -11.44695312 15.42773438 -12.16015625 16.32421875 C-14.05872467 18.84850334 -14.05872467 18.84850334 -14.89453125 21.4375 C-16.43655451 25.01194261 -19.0091777 27.49833867 -21.625 30.3125 C-29.72744677 39.3963596 -36.64956432 50.66296898 -38 63 C-38.16048828 64.36705078 -38.16048828 64.36705078 -38.32421875 65.76171875 C-38.58318575 68.1731387 -38.80821108 70.58245025 -39 73 C-32.15961027 76.08299255 -26.48078302 78.49359434 -19 76 C-17.10529184 75.9314505 -15.2083166 75.91519628 -13.3125 75.9375 C-12.31863281 75.94652344 -11.32476562 75.95554687 -10.30078125 75.96484375 C-9.54152344 75.97644531 -8.78226562 75.98804688 -8 76 C-8.04125 77.11375 -8.0825 78.2275 -8.125 79.375 C-8.41121859 83.04366025 -8.41121859 83.04366025 -6 85 C-4.18887146 83.18887146 -4.6998976 80.18074949 -4.57421875 77.71484375 C-4.03033029 75.1433983 -3.32079775 73.64443783 -2.06640625 71.37890625 C0.51709076 66.42454812 1.12960586 61.502447 1.75 56 C1.87068848 54.98542725 1.99137695 53.97085449 2.11572266 52.92553711 C3.39319298 41.50690388 3.68097062 30.5466907 1.6875 19.1875 C1.57003418 18.51082275 1.45256836 17.83414551 1.33154297 17.13696289 C0.7865924 14.41951781 0.22363146 12.30741625 -1.41796875 10.05078125 C-3.0999657 8.72336227 -3.0999657 8.72336227 -6 9 Z " fill="#0B0708" transform="translate(336,71)"/>
<path d="M0 0 C0.99 0 1.98 0 3 0 C3.86162403 10.77030035 -0.22694144 20.82150954 -4.828125 30.37890625 C-6.65197115 34.45824213 -7.84994091 38.68961594 -9 43 C-7.44152344 43.05607422 -7.44152344 43.05607422 -5.8515625 43.11328125 C8.13940937 43.72034145 18.44694946 47.39470696 30.83398438 53.87207031 C33.02208754 55.01150185 35.22079094 56.1280705 37.421875 57.2421875 C45.82265569 61.53649846 53.5839435 66.11115932 61 72 C61.93779297 72.70962891 61.93779297 72.70962891 62.89453125 73.43359375 C66.08437478 75.9249314 68.33205014 78.29344475 70 82 C70.0441022 83.66608306 70.04997752 85.33408283 70 87 C68.83333333 86.125 67.66666667 85.25 66.5 84.375 C65.76910156 83.82972656 65.03820312 83.28445313 64.28515625 82.72265625 C62.8231564 81.62053328 61.37145378 80.50452973 59.93359375 79.37109375 C56.79255439 76.91850138 53.89762274 74.8090201 50.1875 73.3125 C47 72 47 72 45.6953125 70.62890625 C30.66132834 56.18381087 3.20786546 53.32230726 -16.5625 52.4375 C-17.47580078 52.39431641 -18.38910156 52.35113281 -19.33007812 52.30664062 C-21.55327991 52.20188243 -23.77656707 52.09970983 -26 52 C-24.87868968 44.15297382 -22.31872433 37.63786431 -18.8125 30.5625 C-18.31854736 29.54986084 -17.82459473 28.53722168 -17.31567383 27.49389648 C-13.94792258 20.68086697 -10.43740866 14.18345668 -6 8 C-5.45472656 7.20078125 -4.90945312 6.4015625 -4.34765625 5.578125 C-1.41432596 1.41839012 -1.41432596 1.41839012 0 0 Z " fill="#C92711" transform="translate(93,191)"/>
<path d="M0 0 C-2.53123931 1.68749287 -4.37568623 2.59893093 -7.18359375 3.59375 C-30.81718261 12.16103998 -53.06574197 23.21548305 -72 40 C-72.52577637 40.4655127 -73.05155273 40.93102539 -73.59326172 41.41064453 C-79.98042406 47.09779314 -86.04556101 52.8515983 -91.51171875 59.453125 C-92.00285156 59.96359375 -92.49398438 60.4740625 -93 61 C-93.66 61 -94.32 61 -95 61 C-95.56543912 50.78021141 -93.66912034 44.27250447 -87.1171875 36.34765625 C-66.3936527 13.36823851 -30.90140875 -1.03004696 0 0 Z " fill="#714A1B" transform="translate(368,254)"/>
<path d="M0 0 C1.02174001 8.9913121 -3.31053526 17.15069427 -8.6875 24.125 C-13.7674901 30.27505453 -13.7674901 30.27505453 -18 31 C-25.90776333 31.46075044 -33.32275498 30.94097391 -41 29 C-41.38912391 25.03093609 -41.57342767 22.79093472 -39.1875 19.5 C-35.64968003 16.42097513 -31.52333829 14.07029524 -27.5234375 11.6484375 C-25.04265542 10.19262066 -25.04265542 10.19262066 -23.65625 8.44921875 C-20.94392591 6.07593517 -17.52700716 5.40906421 -14.125 4.4375 C-12.71039692 4.02136449 -11.29632032 3.60343453 -9.8828125 3.18359375 C-8.88169434 2.88751221 -8.88169434 2.88751221 -7.86035156 2.58544922 C-5.35116627 1.79581322 -2.6196578 0 0 0 Z " fill="#AC7A40" transform="translate(262,323)"/>
<path d="M0 0 C9.30828371 6.68287036 20.87278031 21.47956027 23.71875 32.87890625 C23.85796875 33.92884766 23.85796875 33.92884766 24 35 C23.34 35 22.68 35 22 35 C21.79029441 39.14093698 21.79029441 39.14093698 23 43 C18.93547423 42.32510673 15.32959238 41.07017831 11.5 39.5625 C10.3965625 39.13066406 9.293125 38.69882812 8.15625 38.25390625 C5.43591386 37.17317865 2.71673885 36.08973667 0 35 C-0.33 35.99 -0.66 36.98 -1 38 C-2.93875051 32.18374848 -2.57926372 25.64143773 -1 19.75 C0.66910096 13.32043502 0.15625111 6.58858842 0 0 Z " fill="#CE9B5B" transform="translate(174,289)"/>
<path d="M0 0 C-6.17982556 6.52615554 -11.7983521 9.0840118 -20.85913086 9.47460938 C-28.25455852 9.56495643 -35.55418435 8.93284906 -42 5 C-44.296875 2.35546875 -44.296875 2.35546875 -46 0 C-30.53597647 -1.28104337 -15.46540548 -0.85579319 0 0 Z " fill="#D8AA66" transform="translate(241,359)"/>
<path d="M0 0 C-0.36061194 5.88999504 -1.85076941 9.72342729 -6 14 C-11.93640135 18.39585872 -17.01906511 19.1294531 -24.25 19.0625 C-25.51328125 19.05347656 -26.7765625 19.04445312 -28.078125 19.03515625 C-29.04234375 19.02355469 -30.0065625 19.01195312 -31 19 C-27.40162944 9.98408265 -15.31202583 5.37741628 -7.06640625 1.25 C-4 0 -4 0 0 0 Z " fill="#C43D1A" transform="translate(287,226)"/>
<path d="M0 0 C5.44844857 0.49022031 9.57863614 1.95447425 14.375 4.625 C15.02476807 4.97965332 15.67453613 5.33430664 16.34399414 5.69970703 C21.5563054 8.61062126 26.76119392 11.74970664 31 16 C31 16.66 31 17.32 31 18 C12.82653713 18.79398624 12.82653713 18.79398624 7 14 C3.65823794 10.84820891 1.31771121 7.43230133 0 3 C0 2.01 0 1.02 0 0 Z " fill="#D14320" transform="translate(151,227)"/>
<path d="M0 0 C0.66 0 1.32 0 2 0 C1.74605469 0.969375 1.49210937 1.93875 1.23046875 2.9375 C0.10704912 7.28062278 -0.96051707 11.63607029 -2 16 C-2.15968262 16.66725098 -2.31936523 17.33450195 -2.48388672 18.02197266 C-7.93655951 41.48445068 -4.6634568 65.34851834 3.2734375 87.89453125 C4.65102799 91.88658111 5.80767729 95.94948527 7 100 C6.01 100.99 6.01 100.99 5 102 C1.32072923 94.60231729 -0.87050914 86.96129154 -3 79 C-3.41958984 77.58267578 -3.41958984 77.58267578 -3.84765625 76.13671875 C-7.99307251 61.40903384 -8.62124033 46.13677268 -7 31 C-6.82984375 29.13794922 -6.82984375 29.13794922 -6.65625 27.23828125 C-5.62022836 17.70488979 -3.10607275 9.02183726 0 0 Z " fill="#14110C" transform="translate(90,65)"/>
<path d="M0 0 C6.93 0.33 13.86 0.66 21 1 C14.28151294 7.71848706 9.01905013 10.16698482 -0.41479492 10.27026367 C-3.61440406 10.24092891 -6.80335953 10.14277799 -10 10 C-10 9.67 -10 9.34 -10 9 C-7.69 9 -5.38 9 -3 9 C-2.814375 7.88625 -2.814375 7.88625 -2.625 6.75 C-2 4 -2 4 0 0 Z " fill="#9E6E34" transform="translate(220,358)"/>
<path d="M0 0 C0.67289063 0.11214844 1.34578125 0.22429687 2.0390625 0.33984375 C14.49949345 2.71865329 25.80809354 9.27622043 37 15 C33.49098285 16.16967238 32.85096529 15.81089518 29.52734375 14.48828125 C28.6360376 14.14410156 27.74473145 13.79992187 26.82641602 13.4453125 C25.87307373 13.07148438 24.91973145 12.69765625 23.9375 12.3125 C16.72598611 9.58584115 9.59900081 7.15283259 2.0625 5.5 C1.34892334 5.34055908 0.63534668 5.18111816 -0.09985352 5.0168457 C-4.49931274 4.10995111 -8.53948769 3.86042726 -13 4 C-13.33 3.34 -13.66 2.68 -14 2 C-12.35 2 -10.7 2 -9 2 C-9 1.34 -9 0.68 -9 0 C-5.88121092 -1.55939454 -3.39788335 -0.59328122 0 0 Z " fill="#0F0B0B" transform="translate(104,246)"/>
<path d="M0 0 C6.91629562 2.32351369 15.81802873 5.83365373 20.98828125 11.00390625 C17.28316899 10.33858282 13.81601372 9.3576343 10.25 8.15625 C9.18330078 7.79853516 8.11660156 7.44082031 7.01757812 7.07226562 C5.36338867 6.51249023 5.36338867 6.51249023 3.67578125 5.94140625 C2.55365234 5.56435547 1.43152344 5.18730469 0.27539062 4.79882812 C-2.48790226 3.86989137 -5.25022053 2.93816183 -8.01171875 2.00390625 C-8.01171875 1.34390625 -8.01171875 0.68390625 -8.01171875 0.00390625 C-5.16798723 -1.41795951 -3.00160582 -0.70250349 0 0 Z " fill="#251611" transform="translate(120.01171875,250.99609375)"/>
<path d="M0 0 C6.73844784 3.21984946 13.08009664 6.42552922 19 11 C18.01 11.495 18.01 11.495 17 12 C14.85546875 11.14453125 14.85546875 11.14453125 12.1875 9.8125 C5.97218775 6.86146315 -0.3935664 4.88005026 -7 3 C-6.401875 2.87625 -5.80375 2.7525 -5.1875 2.625 C-2.73768652 2.04524015 -2.73768652 2.04524015 0 0 Z " fill="#2B231C" transform="translate(107,257)"/>
<path d="M0 0 C11.52164009 0.96355353 11.52164009 0.96355353 17 2 C16.67 3.98 16.34 5.96 16 8 C10.31497465 6.35433477 5.23318364 3.70967216 0 1 C0 0.67 0 0.34 0 0 Z " fill="#DBB986" transform="translate(92,249)"/>
<path d="M0 0 C0 0.66 0 1.32 0 2 C-1.43359375 3.41015625 -1.43359375 3.41015625 -3.4375 5.0625 C-8.22341701 9.12068366 -12.6114377 13.52000931 -17 18 C-17.66 17.67 -18.32 17.34 -19 17 C-3.96619217 0 -3.96619217 0 0 0 Z " fill="#210B08" transform="translate(336,71)"/>
<path d="M0 0 C0.33 0 0.66 0 1 0 C2.18531495 7.98649105 3.29563752 15.95543903 4 24 C3.34 24 2.68 24 2 24 C-0.63537118 16.09388645 -0.17981101 8.23134837 0 0 Z " fill="#231F14" transform="translate(84,116)"/>
<path d="M0 0 C0.33 0 0.66 0 1 0 C1.12852505 8.72542301 0.79645684 17.31008699 0 26 C-0.33 26 -0.66 26 -1 26 C-1.19436491 23.54203147 -1.3807742 21.08390706 -1.5625 18.625 C-1.61857422 17.92632812 -1.67464844 17.22765625 -1.73242188 16.5078125 C-2.11328125 11.2265625 -2.11328125 11.2265625 -1 9 C-0.77532169 7.46331135 -0.59203195 5.92031946 -0.4375 4.375 C-0.35371094 3.55773437 -0.26992188 2.74046875 -0.18359375 1.8984375 C-0.12300781 1.27195312 -0.06242187 0.64546875 0 0 Z " fill="#18130B" transform="translate(340,104)"/>
<path d="M0 0 C2.31 0.33 4.62 0.66 7 1 C7.33 1.99 7.66 2.98 8 4 C4.01803543 5.05404945 1.01804691 4.84098656 -3 4 C-2.01 2.68 -1.02 1.36 0 0 Z " fill="#231412" transform="translate(106,247)"/>
<path d="M0 0 C2.60508636 0.11391632 5.20845546 0.24065548 7.8125 0.375 C8.55048828 0.4059375 9.28847656 0.436875 10.04882812 0.46875 C13.81893115 0.67346148 15.79650741 0.86433827 19 3 C16.98177083 2.96744792 14.96354167 2.93489583 12.9453125 2.90234375 C10.91814596 2.87350758 10.91814596 2.87350758 9 4 C6.8359375 3.44140625 6.8359375 3.44140625 4.375 2.5625 C3.55773437 2.27503906 2.74046875 1.98757812 1.8984375 1.69140625 C1.27195312 1.46324219 0.64546875 1.23507813 0 1 C0 0.67 0 0.34 0 0 Z " fill="#B89A72" transform="translate(68,254)"/>
<path d="M0 0 C2.12493141 -0.02693575 4.24995912 -0.04636628 6.375 -0.0625 C7.55835938 -0.07410156 8.74171875 -0.08570313 9.9609375 -0.09765625 C13 0 13 0 15 1 C15 1.66 15 2.32 15 3 C9.5814234 3.22577402 5.22512279 2.46670113 0 1 C0 0.67 0 0.34 0 0 Z " fill="#C9975F" transform="translate(123,149)"/>
<path d="M0 0 C0.33 0 0.66 0 1 0 C2.60671734 6.57293456 1.03358813 11.64647324 -1 18 C-1.33 18 -1.66 18 -2 18 C-1.85805236 15.93722893 -1.71127784 13.87478969 -1.5625 11.8125 C-1.48128906 10.66394531 -1.40007812 9.51539063 -1.31640625 8.33203125 C-1.04596188 5.48401829 -0.62478253 2.78789518 0 0 Z " fill="#481E10" transform="translate(234,160)"/>
<path d="M0 0 C0.66 0 1.32 0 2 0 C2.99 3.96 3.98 7.92 5 12 C4.01 11.67 3.02 11.34 2 11 C0.60955102 7.12137916 0 4.13537997 0 0 Z " fill="#1B160E" transform="translate(87,140)"/>
<path d="M0 0 C0.33 1.32 0.66 2.64 1 4 C-3.455 3.01 -3.455 3.01 -8 2 C-8 1.34 -8 0.68 -8 0 C-5.13822943 -1.43088528 -3.06624227 -0.59991697 0 0 Z " fill="#2A201C" transform="translate(120,251)"/>
<path d="M0 0 C3.7910119 1.44950455 7.3874638 3.15172566 11 5 C7.29218328 6.23593891 6.32489747 5.5678132 2.8125 4.0625 C1.91144531 3.68222656 1.01039063 3.30195313 0.08203125 2.91015625 C-0.60503906 2.60980469 -1.29210937 2.30945313 -2 2 C-1.34 1.34 -0.68 0.68 0 0 Z " fill="#402218" transform="translate(130,256)"/>
<path d="M0 0 C2.64 0 5.28 0 8 0 C6.35 1.65 4.7 3.3 3 5 C2.01 3.35 1.02 1.7 0 0 Z " fill="#9B2212" transform="translate(183,126)"/>
<path d="M0 0 C3.63 0.33 7.26 0.66 11 1 C9.68 1.99 8.36 2.98 7 4 C4.69 3.01 2.38 2.02 0 1 C0 0.67 0 0.34 0 0 Z " fill="#C8A272" transform="translate(92,249)"/>
<path d="M0 0 C2.625 -0.1875 2.625 -0.1875 5 0 C3.35 1.98 1.7 3.96 0 6 C-0.66 5.01 -1.32 4.02 -2 3 C-1.34 2.01 -0.68 1.02 0 0 Z " fill="#8C1F0F" transform="translate(329,71)"/>
<path d="M0 0 C0.99 0.33 1.98 0.66 3 1 C3.33 2.65 3.66 4.3 4 6 C1.525 7.485 1.525 7.485 -1 9 C-0.67 6.03 -0.34 3.06 0 0 Z " fill="#805B2C" transform="translate(338,51)"/>
<path d="M0 0 C0 2.31 0 4.62 0 7 C-0.66 7 -1.32 7 -2 7 C-2.66 5.35 -3.32 3.7 -4 2 C-1 0 -1 0 0 0 Z " fill="#B09065" transform="translate(167,314)"/>
<path d="M0 0 C2.64 0.33 5.28 0.66 8 1 C8 1.99 8 2.98 8 4 C4.31245243 3.50168276 2.39509338 2.89932357 0 0 Z " fill="#E8CA9B" transform="translate(78,256)"/>
<path d="M0 0 C-0.99 0 -1.98 0 -3 0 C-3 0.99 -3 1.98 -3 3 C-5.31 3.33 -7.62 3.66 -10 4 C-10.33 3.34 -10.66 2.68 -11 2 C-9.35 2 -7.7 2 -6 2 C-6 1.34 -6 0.68 -6 0 C-3.50907189 -1.24546405 -2.58919267 -0.7767578 0 0 Z " fill="#291B14" transform="translate(101,246)"/>
<path d="M0 0 C0.99 0 1.98 0 3 0 C2.8125 1.875 2.8125 1.875 2 4 C-0.5625 5.25 -0.5625 5.25 -3 6 C-2.42655063 3.13275314 -2.1385485 2.1385485 0 0 Z " fill="#D7AB6A" transform="translate(240,160)"/>
<path d="M0 0 C1.98 0.99 1.98 0.99 4 2 C3.34 4.64 2.68 7.28 2 10 C1.67 10 1.34 10 1 10 C0.67 6.7 0.34 3.4 0 0 Z " fill="#1E1310" transform="translate(169,286)"/>
<path d="M0 0 C2.97 0.33 5.94 0.66 9 1 C5 3 5 3 1 3 C0.67 2.01 0.34 1.02 0 0 Z " fill="#BF3217" transform="translate(118,149)"/>
<path d="M0 0 C0.33 0 0.66 0 1 0 C1.33 3.63 1.66 7.26 2 11 C-1 8 -1 8 -1.07421875 5.95703125 C-0.71614583 3.97135417 -0.35807292 1.98567708 0 0 Z " fill="#191409" transform="translate(338,84)"/>
</svg>
